<?xml version="1.0" encoding="utf-8"?>
<!-- Generator: Adobe Illustrator 24.0.2, SVG Export Plug-In . SVG Version: 6.00 Build 0)  -->
<svg version="1.1" id="Layer_1" xmlns="http://www.w3.org/2000/svg" xmlns:xlink="http://www.w3.org/1999/xlink" x="0px" y="0px"
	 viewBox="0 0 841.89 595.28" style="enable-background:new 0 0 841.89 595.28;" xml:space="preserve">
<style type="text/css">
	.st0{fill:#00A651;}
	.st1{fill:#ED1C24;}
	.st2{fill:#FFF200;}
	.st3{fill:#F7941D;}
	.st4{fill:#00AEEF;}
	.st5{fill:#754C29;}
	.st6{fill:none;stroke:#000000;stroke-width:2;stroke-miterlimit:10;}
</style>
<polyline class="st0" points="366.29,156.18 373.53,148.94 380.94,156.35 "/>
<polyline class="st0" points="375.82,156.18 383.06,148.94 390.47,156.35 "/>
<polygon class="st1" points="86.47,78.35 153.73,78.35 117.93,45.81 "/>
<rect x="36.92" y="99.44" class="st2" width="42.02" height="70.15"/>
<rect x="171.51" y="109.43" class="st3" width="31.67" height="52.86"/>
<rect x="420.18" y="108.53" class="st4" width="14.29" height="53.11"/>
<g>
	<path class="st5" d="M245.06,107.16c-2.15,3.68-4.14,5.66-5.97,5.93l0.29,9.56c0.08,2.56-0.67,4.66-2.23,6.29
		c-1.57,1.63-3.52,2.48-5.86,2.55c-1.57,0.05-3.03-0.27-4.36-0.94c-1.33-0.68-2.17-1.52-2.5-2.54l2.47-2.5l0.44,0.41
		c-0.07,0.26-0.1,0.54-0.1,0.82c0.03,1.03,0.47,1.92,1.31,2.69s1.85,1.13,3.02,1.09c1.57-0.05,2.79-0.69,3.64-1.94
		c0.85-1.25,1.24-2.97,1.18-5.17l-0.41-13.62c-1.88,2.54-3.95,3.84-6.21,3.91c-1.67,0.05-3.06-0.51-4.15-1.69
		c-1.1-1.18-1.67-2.52-1.71-4.04l-0.04-1.24l-1.42,2.16l-1.02-0.67c2.32-3.51,4.22-5.92,5.72-7.21c1.5-1.29,3.01-1.96,4.54-2.01
		c1.67-0.05,3.01,0.38,4.01,1.3l2.97-1.94l0.39,12.92c1.41-0.16,3.11-1.79,5.09-4.88L245.06,107.16z M235.9,107.73l-0.17-5.72
		c-0.97-1.4-2.23-2.08-3.79-2.04c-1.45,0.04-2.66,0.67-3.61,1.88c-0.95,1.21-1.4,2.65-1.35,4.33c0.05,1.58,0.45,2.81,1.2,3.68
		c0.75,0.87,1.77,1.29,3.04,1.25c1.37-0.04,2.5-0.53,3.38-1.48C235.47,108.69,235.91,108.06,235.9,107.73z"/>
	<path class="st5" d="M261.57,107.2c-1.13,1.97-2.39,3.42-3.78,4.34c-1.39,0.92-3.23,1.41-5.53,1.48c-1.67,0.05-3.02-0.41-4.02-1.38
		c-1.01-0.97-1.54-2.36-1.59-4.18c-0.01-0.48,0.01-1,0.07-1.55c-0.7,0.95-1.23,1.71-1.6,2.29l-1.02-0.67
		c2.51-3.79,4.45-6.29,5.83-7.49c1.38-1.2,2.81-1.83,4.31-1.87c0.83-0.02,1.51,0.2,2.06,0.66c0.55,0.47,0.84,1.09,0.86,1.85
		c0.08,2.62-2.15,5.27-6.7,7.96c0.67,1.43,1.99,2.12,3.97,2.06c0.95-0.03,1.99-0.4,3.13-1.12c1.14-0.72,2.16-1.75,3.07-3.09
		L261.57,107.2z M249.85,107.5c3.3-1.73,4.92-3.6,4.86-5.6c-0.02-0.61-0.2-1.09-0.54-1.47c-0.34-0.37-0.8-0.55-1.36-0.53
		c-1.03,0.03-1.88,0.53-2.56,1.5c-0.68,0.97-1,2.12-0.96,3.45c0.02,0.73,0.12,1.34,0.3,1.84
		C249.76,107.17,249.85,107.44,249.85,107.5z"/>
	<path class="st5" d="M275.06,106.71c-2.17,3.72-4.53,5.62-7.07,5.69c-1.21,0.04-1.98-0.23-2.3-0.79c-0.32-0.56-0.5-1.47-0.54-2.74
		l-0.22-7.28c-1.28,2.32-2.54,4.36-3.78,6.1l-1.04-0.68c0.72-1.13,1.33-2.12,1.83-2.96c0.5-0.84,1.11-1.94,1.83-3.3
		c0.72-1.36,1.08-2.12,1.07-2.28l-0.37-12.38l2.94-3.06l0.35,11.49l4.43-7.43l1.22,0.85l-5.56,9.38l0.28,9.31
		c0.04,1.42,0.13,2.36,0.27,2.83c0.14,0.47,0.48,0.7,1.02,0.68c1.37-0.04,2.96-1.44,4.78-4.2L275.06,106.71z"/>
</g>
<path d="M248.23,145.73c-1.49,5.46-5.08,9.86-12.03,9.86c-7.75,0-13.27-5.77-13.27-16.12c0-8.49,4.53-16.37,13.64-16.37
	c7.87,0,11.1,5.58,11.66,9.92h-3.16c-0.93-3.6-3.29-7.01-8.56-7.01c-6.57,0-10.29,5.58-10.29,13.33c0,7.38,3.47,13.33,9.98,13.33
	c4.53,0,7.25-2.29,8.87-6.94H248.23z"/>
<path d="M280.84,139.28c0,8.62-4.77,16.31-14.01,16.31c-8.37,0-13.58-6.88-13.58-16.24c0-8.87,4.9-16.24,13.89-16.24
	C275.39,123.1,280.84,129.55,280.84,139.28z M256.54,139.34c0,7.38,3.97,13.33,10.54,13.33c6.7,0,10.48-5.52,10.48-13.33
	c0-7.32-3.72-13.33-10.6-13.33C259.89,126.02,256.54,131.91,256.54,139.34z"/>
<path d="M292.93,126.76v28.08h-3.1v-28.08h-5.33v-2.91h5.33v-4.28c0-5.33,1.18-11.04,8.12-11.04c0.93,0,2.05,0.06,2.79,0.43v2.91
	c-0.87-0.31-2.11-0.43-2.98-0.43c-3.47,0-4.84,2.29-4.84,7.63v4.77h12.46v-4.28c0-5.33,1.3-11.04,8.12-11.04
	c0.93,0,2.05,0.06,2.79,0.43v2.91c-0.87-0.31-2.11-0.43-2.98-0.43c-3.47,0-4.84,2.29-4.84,7.63v4.77h6.57v2.91h-6.57v28.08h-3.1
	v-28.08H292.93z"/>
<path d="M320.83,139.72c0.06,8,4.09,12.96,10.04,12.96c5.83,0,7.81-3.29,8.93-5.83h3.16c-1.3,4.09-4.59,8.74-12.21,8.74
	c-9.42,0-13.08-8.12-13.08-16c0-8.87,4.4-16.49,13.45-16.49c9.55,0,12.59,8.25,12.59,14.07c0,0.87,0,1.74-0.06,2.54H320.83z
	 M340.49,136.99c-0.06-6.14-3.41-10.97-9.49-10.97c-6.39,0-9.3,4.46-9.98,10.97H340.49z"/>
<polyline class="st6" points="17.97,154.53 17.97,68.61 30.59,68.61 30.59,154.53 42.08,154.53 42.08,94.85 93.43,94.85 
	93.43,154.53 104.92,154.53 104.92,84.1 94.1,84.1 128.2,50 163.65,85.45 151.54,85.45 151.54,154.53 163.65,154.53 163.65,107.79 
	196.81,107.79 196.81,154.53 233.86,154.53 "/>
<polyline class="st6" points="339.88,147.78 350.47,147.88 350.47,154.84 357.18,154.84 357.18,120.53 373.24,120.53 373.24,154.84 
	376.06,154.84 379.45,151.45 382.89,154.89 385.8,151.98 388.89,155.07 392.16,151.8 394.8,154.45 397.76,154.45 397.76,135.53 
	410.29,135.53 410.29,154.84 415.76,154.84 415.76,114.71 430.76,114.71 430.76,154.84 442.59,154.84 442.59,96.53 477.18,96.53 
	477.18,155.59 "/>
<rect x="187.34" y="114.04" width="4.23" height="4.23"/>
<rect x="187.34" y="123.62" width="4.23" height="4.23"/>
<rect x="187.34" y="133.19" width="4.23" height="4.23"/>
<rect x="187.34" y="142.76" width="4.23" height="4.23"/>
</svg>
