<?xml version="1.0" encoding="utf-8"?>
<!-- Generator: Adobe Illustrator 21.0.0, SVG Export Plug-In . SVG Version: 6.00 Build 0)  -->
<svg version="1.1" id="Layer_1" xmlns="http://www.w3.org/2000/svg" xmlns:xlink="http://www.w3.org/1999/xlink" x="0px" y="0px"
	 viewBox="0 0 1242 2208" style="enable-background:new 0 0 1242 2208;" xml:space="preserve">
<style type="text/css">
	.st0{fill:#FFFFFF;}
	.st1{fill:#F7941D;}
</style>
<rect x="331.7" y="1933" class="st0" width="578.5" height="128"/>
<g>
	<path class="st1" d="M459.5,2029.8h-8.4v-59.5c0-1.3-0.4-1.9-1.2-1.9h-30.4v53.5c0,5.2-2.7,7.8-8.2,7.8H400v-8.2h11.2v-53.2H401
		v-8.2h50.2c5.5,0,8.3,2.7,8.3,8.2V2029.8z"/>
	<path class="st1" d="M496.8,2029.8h-8.3v-59c0-1.6-0.7-2.4-2-2.4h-15.6v-8.2h17.8c5.4,0,8.1,2.8,8.1,8.4V2029.8z"/>
	<path class="st1" d="M531.8,2021.5c0,5.5-2.7,8.3-8.1,8.3h-17.8v-8.2h17.7v-53.2H508v-8.2h15.6c2.4,0,4.4,0.8,6,2.3
		c1.5,1.5,2.3,3.5,2.3,5.9V2021.5z"/>
	<path class="st1" d="M600,1968.4h-8.9v61.4h-8.3v-61.4h-26v61.4h-8.4v-61.4h-8.7v-8.2H600V1968.4z"/>
	<path class="st1" d="M699.7,2029.8h-8.2v-58.7c0-1.4-0.3-2.2-1-2.4c-0.3-0.2-0.9-0.2-1.7-0.2h-32.3v-8.2h34.8
		c5.5,0,8.3,2.8,8.3,8.4V2029.8z"/>
	<path class="st1" d="M770.7,1968.4h-8.9v61.4h-8.3v-61.4h-26v61.4H719v-61.4h-8.7v-8.2h60.4V1968.4z"/>
	<path class="st1" d="M833.3,2029.8h-50.9v-8.2h34.9v-44.3c0-2.5-0.6-4.6-1.9-6.3c-1.2-1.7-3.1-2.6-5.5-2.6h-27.4v-8.2h28.3
		c9.7,0,14.6,5.5,14.6,16.4v45h7.8V2029.8z"/>
</g>
</svg>
