<?xml version="1.0" encoding="utf-8"?>
<!-- Generator: Adobe Illustrator 21.0.0, SVG Export Plug-In . SVG Version: 6.00 Build 0)  -->
<svg version="1.1" id="Layer_1" xmlns="http://www.w3.org/2000/svg" xmlns:xlink="http://www.w3.org/1999/xlink" x="0px" y="0px"
	 viewBox="0 0 1242 2208" style="enable-background:new 0 0 1242 2208;" xml:space="preserve">
<style type="text/css">
	.st0{fill:#00A651;}
	.st1{fill:#ED1C24;}
	.st2{fill:#FFF200;}
	.st3{fill:#F7941D;}
	.st4{fill:#00AEEF;}
	.st5{fill:#754C29;}
	.st6{fill:none;stroke:#000000;stroke-width:5.2336;stroke-miterlimit:10;}
	.st7{fill:none;}
	.st8{fill:#FFFFFF;}
	.st9{font-family:'GuttmanKav-Light';}
	.st10{font-size:84px;}
</style>
<rect y="453" width="1242" height="1755"/>
<g>
	<polyline class="st0" points="935.1,387.6 954.3,368.9 973.9,388.1 	"/>
	<polyline class="st0" points="960.3,387.6 979.5,368.9 999.1,388.1 	"/>
	<polygon class="st1" points="194.7,186.2 372.7,186.2 278,102 	"/>
	<rect x="63.6" y="240.8" class="st2" width="111.2" height="181.6"/>
	<rect x="419.7" y="266.7" class="st3" width="83.8" height="136.8"/>
	<rect x="1077.7" y="264.3" class="st4" width="37.8" height="137.5"/>
	<g>
		<path class="st5" d="M614.3,260.8c-5.7,9.5-11,14.6-15.8,15.3l0.8,24.7c0.2,6.6-1.8,12.1-5.9,16.3c-4.2,4.2-9.3,6.4-15.5,6.6
			c-4.2,0.1-8-0.7-11.5-2.4c-3.5-1.8-5.7-3.9-6.6-6.6l6.5-6.5l1.2,1.1c-0.2,0.7-0.3,1.4-0.3,2.1c0.1,2.7,1.2,5,3.5,7
			c2.2,2,4.9,2.9,8,2.8c4.2-0.1,7.4-1.8,9.6-5c2.2-3.2,3.3-7.7,3.1-13.4l-1.1-35.2c-5,6.6-10.5,9.9-16.4,10.1
			c-4.4,0.1-8.1-1.3-11-4.4c-2.9-3.1-4.4-6.5-4.5-10.5l-0.1-3.2l-3.8,5.6l-2.7-1.7c6.1-9.1,11.2-15.3,15.1-18.7c4-3.3,8-5.1,12-5.2
			c4.4-0.1,8,1,10.6,3.4l7.9-5l1,33.4c3.7-0.4,8.2-4.6,13.5-12.6L614.3,260.8z M590.1,262.3l-0.4-14.8c-2.6-3.6-5.9-5.4-10-5.3
			c-3.8,0.1-7,1.7-9.6,4.9s-3.7,6.9-3.6,11.2c0.1,4.1,1.2,7.3,3.2,9.5c2,2.3,4.7,3.3,8,3.2c3.6-0.1,6.6-1.4,8.9-3.8
			C589,264.7,590.1,263.1,590.1,262.3z"/>
		<path class="st5" d="M658,260.9c-3,5.1-6.3,8.9-10,11.2s-8.5,3.6-14.6,3.8c-4.4,0.1-8-1.1-10.6-3.6c-2.7-2.5-4.1-6.1-4.2-10.8
			c0-1.2,0-2.6,0.2-4c-1.9,2.5-3.3,4.4-4.2,5.9l-2.7-1.7c6.6-9.8,11.8-16.3,15.4-19.4c3.7-3.1,7.4-4.7,11.4-4.8
			c2.2-0.1,4,0.5,5.5,1.7c1.5,1.2,2.2,2.8,2.3,4.8c0.2,6.8-5.7,13.6-17.7,20.6c1.8,3.7,5.3,5.5,10.5,5.3c2.5-0.1,5.3-1,8.3-2.9
			c3-1.9,5.7-4.5,8.1-8L658,260.9z M627,261.7c8.7-4.5,13-9.3,12.9-14.5c-0.1-1.6-0.5-2.8-1.4-3.8c-0.9-1-2.1-1.4-3.6-1.4
			c-2.7,0.1-5,1.4-6.8,3.9s-2.6,5.5-2.5,8.9c0.1,1.9,0.3,3.5,0.8,4.8C626.8,260.8,627,261.5,627,261.7z"/>
		<path class="st5" d="M693.7,259.6c-5.7,9.6-12,14.5-18.7,14.7c-3.2,0.1-5.2-0.6-6.1-2c-0.8-1.4-1.3-3.8-1.4-7.1l-0.6-18.8
			c-3.4,6-6.7,11.3-10,15.8l-2.8-1.8c1.9-2.9,3.5-5.5,4.8-7.7c1.3-2.2,2.9-5,4.8-8.5s2.9-5.5,2.8-5.9l-1-32l7.8-7.9l0.9,29.7
			l11.7-19.2l3.2,2.2l-14.7,24.3l0.7,24.1c0.1,3.7,0.3,6.1,0.7,7.3s1.3,1.8,2.7,1.8c3.6-0.1,7.8-3.7,12.6-10.9L693.7,259.6z"/>
	</g>
	<path d="M622.7,360.6c-3.9,14.1-13.4,25.5-31.8,25.5c-20.5,0-35.1-14.9-35.1-41.7c0-22,12-42.4,36.1-42.4
		c20.8,0,29.4,14.4,30.9,25.7h-8.4c-2.5-9.3-8.7-18.1-22.6-18.1c-17.4,0-27.2,14.4-27.2,34.5c0,19.1,9.2,34.5,26.4,34.5
		c12,0,19.2-5.9,23.5-18H622.7z"/>
	<path d="M709,343.9c0,22.3-12.6,42.2-37.1,42.2c-22.1,0-35.9-17.8-35.9-42c0-23,13-42,36.8-42C694.6,302,709,318.7,709,343.9z
		 M644.7,344.1c0,19.1,10.5,34.5,27.9,34.5c17.7,0,27.7-14.3,27.7-34.5c0-18.9-9.8-34.5-28-34.5
		C653.6,309.6,644.7,324.8,644.7,344.1z"/>
	<path d="M741,311.5v72.7h-8.2v-72.7h-14.1V304h14.1v-11.1c0-13.8,3.1-28.6,21.5-28.6c2.5,0,5.4,0.2,7.4,1.1v7.5
		c-2.3-0.8-5.6-1.1-7.9-1.1c-9.2,0-12.8,5.9-12.8,19.7v12.3h33v-11.1c0-13.8,3.4-28.6,21.5-28.6c2.5,0,5.4,0.2,7.4,1.1v7.5
		c-2.3-0.8-5.6-1.1-7.9-1.1c-9.2,0-12.8,5.9-12.8,19.7v12.3h17.4v7.5h-17.4v72.7h-8.2v-72.7L741,311.5L741,311.5z"/>
	<path d="M814.8,345c0.2,20.7,10.8,33.5,26.6,33.5c15.4,0,20.7-8.5,23.6-15.1h8.4c-3.4,10.6-12.1,22.6-32.3,22.6
		c-24.9,0-34.6-21-34.6-41.4c0-23,11.6-42.7,35.6-42.7c25.3,0,33.3,21.4,33.3,36.4c0,2.3,0,4.5-0.2,6.6L814.8,345L814.8,345z
		 M866.8,338c-0.2-15.9-9-28.4-25.1-28.4c-16.9,0-24.6,11.5-26.4,28.4H866.8z"/>
	<polyline class="st6" points="0.5,383.4 13.5,383.4 13.5,161 46.9,161 46.9,383.4 77.3,383.4 77.3,228.9 213.2,228.9 213.2,383.4 
		243.6,383.4 243.6,201.1 214.9,201.1 305.2,112.8 398.9,204.6 366.9,204.6 366.9,383.4 398.9,383.4 398.9,262.4 486.7,262.4 
		486.7,383.4 584.7,383.4 	"/>
	<polyline class="st6" points="865.2,365.9 893.2,366.2 893.2,384.2 911,384.2 911,295.4 953.5,295.4 953.5,384.2 961,384.2 
		969.9,375.4 979,384.3 986.7,376.8 994.9,384.8 1003.5,376.3 1010.5,383.2 1018.4,383.2 1018.4,334.2 1051.5,334.2 1051.5,384.2 
		1066,384.2 1066,280.3 1105.7,280.3 1105.7,384.2 1137,384.2 1137,233.3 1228.5,233.3 1228.5,386.1 1242.5,386.1 	"/>
	<rect x="461.6" y="278.6" width="11.2" height="10.9"/>
	<rect x="461.6" y="303.4" width="11.2" height="10.9"/>
	<rect x="461.6" y="328.1" width="11.2" height="10.9"/>
	<rect x="461.6" y="352.9" width="11.2" height="10.9"/>
</g>
<rect x="162.6" y="1280.8" class="st7" width="921.1" height="1068.1"/>
<text transform="matrix(1 0 0 1 363.4697 1354.6855)"><tspan x="0" y="0" class="st8 st9 st10">םיאבה םיכורב</tspan><tspan x="-163.5" y="100.8" class="st8 st9 st10"> הבוט העיסנ םכל היהתש</tspan><tspan x="90" y="201.6" class="st8 st9 st10">!ןובאתבו</tspan><tspan x="95.9" y="705.6" class="st3 st9 st10">וניתודוא</tspan></text>
<polyline class="st3" points="752,1649.5 621,1780.5 490,1649.5 "/>
</svg>
