<?xml version="1.0" encoding="utf-8"?>
<!-- Generator: Adobe Illustrator 21.0.0, SVG Export Plug-In . SVG Version: 6.00 Build 0)  -->
<svg version="1.1" id="Layer_1" xmlns="http://www.w3.org/2000/svg" xmlns:xlink="http://www.w3.org/1999/xlink" x="0px" y="0px"
	 viewBox="0 0 1242 2208" style="enable-background:new 0 0 1242 2208;" xml:space="preserve">
<style type="text/css">
	.st0{fill:#F7941D;}
</style>
<g>
	<path class="st0" d="M400.4,1327.9c0,4.3-2.5,6.5-7.4,6.5h-22.7c-4.5,0-6.8-2.2-6.8-6.5v-44.4h-8.9v-6.8h38.8
		c2.5,0,4.3,0.5,5.4,1.3c1.1,0.9,1.6,2.6,1.6,5.1V1327.9z M393.4,1327.6v-44.1h-22.9v44.1H393.4z"/>
	<path class="st0" d="M430.3,1309.3h-7.1v-25.8h-13.4v-6.8h13.6c4.6,0,6.9,2.3,6.9,6.8V1309.3z"/>
	<path class="st0" d="M487.7,1334.4h-7.8l-24.3-33.4c-3.8,1.3-6.3,3.4-7.5,6.1c-0.9,1.9-1.4,5.2-1.4,9.8v10.7h10.5v6.8h-13.5
		c-2.5,0-3.8-2.2-3.8-6.5v-14.6c0-8.1,3.9-14,11.8-17.8l-14.1-18l0.2-0.8h8.1l20.7,28.1c3.5,0,6.3-1,8.3-2.9c2-1.9,3-4.7,3-8.2v-8.5
		c0-1.1-0.7-1.7-2.2-1.7h-7.3v-6.8h9.9c2.1,0,3.7,0.9,4.9,2.6c1,1.5,1.5,3.3,1.5,5.5v9.2c0,4.1-1.2,7.7-3.7,10.6
		c-2.4,3-5.7,4.9-9.8,5.9l16.4,22.9V1334.4z"/>
	<path class="st0" d="M539.6,1334.4h-42.2v-6.8h28.9v-36.7c0-2.1-0.5-3.8-1.5-5.3c-1-1.4-2.6-2.1-4.6-2.1h-22.7v-6.8H521
		c8.1,0,12.1,4.5,12.1,13.6v37.3h6.5V1334.4z"/>
	<path class="st0" d="M590.9,1334.4h-6.7v-47.6c0-2.2-1-3.3-3.1-3.3H549v-6.8h35.2c1.9,0,3.5,0.7,4.8,2.1c1.3,1.4,1.9,3.1,1.9,5
		V1334.4z M556.4,1334.4h-6.7v-37.6h6.7V1334.4z"/>
	<path class="st0" d="M682.4,1327.9c0,4.3-2.5,6.5-7.4,6.5h-22.7c-4.5,0-6.8-2.2-6.8-6.5v-44.4h-8.9v-6.8h38.8
		c2.5,0,4.3,0.5,5.4,1.3c1.1,0.9,1.6,2.6,1.6,5.1V1327.9z M675.4,1327.6v-44.1h-22.9v44.1H675.4z"/>
	<path class="st0" d="M712.3,1309.3h-7.1v-25.8h-13.4v-6.8h13.6c4.6,0,6.9,2.3,6.9,6.8V1309.3z"/>
	<path class="st0" d="M755.1,1321.4c0,3.8-1.4,6.9-4.3,9.4c-2.8,2.4-6.2,3.6-10.1,3.6h-21.2v-6.8h20.7c5.4,0,8.1-2.6,8.1-7.7v-28.1
		c0-5.5-2.7-8.3-8.1-8.3h-20.4v-6.8h21.4c3.9,0,7.2,1.3,9.8,3.8c2.6,2.5,4,5.7,4,9.7V1321.4z"/>
	<path class="st0" d="M785.8,1334.4h-6.9v-48.9c0-1.3-0.6-2-1.7-2h-12.9v-6.8h14.8c4.5,0,6.7,2.3,6.7,7V1334.4z"/>
	<path class="st0" d="M829.2,1334.4h-6.8v-48.7c0-1.1-0.3-1.8-0.8-2c-0.3-0.1-0.7-0.2-1.4-0.2h-26.8v-6.8h28.9c4.6,0,6.9,2.3,6.9,7
		V1334.4z"/>
	<path class="st0" d="M880.2,1334.4H838v-6.8h28.9v-36.7c0-2.1-0.5-3.8-1.6-5.3c-1-1.4-2.5-2.1-4.5-2.1h-22.7v-6.8h23.5
		c8.1,0,12.1,4.5,12.1,13.6v37.3h6.5V1334.4z"/>
	<path class="st0" d="M221.8,1449.9c0,1.7-0.5,3.2-1.4,4.4c-0.9,1.2-2.2,1.8-3.9,1.8c-1.6,0-2.8-0.6-3.8-1.9s-1.4-2.7-1.4-4.3
		c0-1.7,0.5-3.1,1.4-4.3c0.9-1.2,2.2-1.8,3.8-1.8s2.9,0.6,3.8,1.9C221.3,1446.9,221.8,1448.3,221.8,1449.9z"/>
	<path class="st0" d="M237.8,1449.9c0,1.7-0.5,3.2-1.4,4.4c-0.9,1.2-2.2,1.8-3.9,1.8c-1.6,0-2.8-0.6-3.8-1.9s-1.4-2.7-1.4-4.3
		c0-1.7,0.5-3.1,1.4-4.3c0.9-1.2,2.2-1.8,3.8-1.8s2.9,0.6,3.8,1.9C237.3,1446.9,237.8,1448.3,237.8,1449.9z"/>
	<path class="st0" d="M253.8,1449.9c0,1.7-0.5,3.2-1.4,4.4c-0.9,1.2-2.2,1.8-3.9,1.8c-1.6,0-2.8-0.6-3.8-1.9s-1.4-2.7-1.4-4.3
		c0-1.7,0.5-3.1,1.4-4.3c0.9-1.2,2.2-1.8,3.8-1.8s2.9,0.6,3.8,1.9C253.3,1446.9,253.8,1448.3,253.8,1449.9z"/>
	<path class="st0" d="M280.9,1454.4H274v-48.9c0-1.3-0.6-2-1.7-2h-12.9v-6.8h14.8c4.5,0,6.7,2.3,6.7,7V1454.4z"/>
	<path class="st0" d="M310,1447.5c0,4.6-2.2,6.9-6.7,6.9h-14.8v-6.8h14.7v-44.1h-13v-6.8h12.9c2,0,3.7,0.6,5,1.9
		c1.3,1.3,1.9,2.9,1.9,4.9V1447.5z"/>
	<path class="st0" d="M337,1429.3h-7.1v-25.8h-13.4v-6.8h13.6c4.6,0,6.9,2.3,6.9,6.8V1429.3z"/>
	<path class="st0" d="M380.7,1421.4c0,1.6-0.5,2.9-1.6,3.9l-19.3,17.9c-0.5,0.4-0.7,1.1-0.7,2c0,1.6,0.7,2.4,2.2,2.4h7.4v6.8H356
		c-2.3,0-3.5-1.3-3.5-3.8v-7.9c0-1.7,1.2-3.6,3.7-5.8l15.7-14.2c0.8-0.7,1.2-1.6,1.2-2.7v-14.3c0-1.5-0.7-2.2-2-2.2h-21.7
		c-3.5,0-5.2-2.3-5.2-6.8v-10.9h7.8v10.9h21.9c2,0,3.7,0.7,4.9,2c1.2,1.3,1.8,3,1.8,5L380.7,1421.4z"/>
	<path class="st0" d="M439,1454.4h-7.8l-24.3-33.4c-3.8,1.3-6.3,3.4-7.5,6.1c-0.9,1.9-1.4,5.2-1.4,9.8v10.7h10.5v6.8H395
		c-2.5,0-3.8-2.2-3.8-6.5v-14.6c0-8.1,3.9-14,11.8-17.8l-14.1-18l0.2-0.8h8.1l20.7,28.1c3.5,0,6.3-1,8.3-2.9c2-1.9,3-4.7,3-8.2v-8.5
		c0-1.1-0.7-1.7-2.2-1.7h-7.3v-6.8h9.9c2.1,0,3.7,0.9,4.9,2.6c1,1.5,1.5,3.3,1.5,5.5v9.2c0,4.1-1.2,7.7-3.7,10.6
		c-2.4,3-5.7,4.9-9.8,5.9l16.4,22.9V1454.4z"/>
	<path class="st0" d="M535.3,1454.4h-7v-49.3c0-1.1-0.3-1.6-1-1.6h-25.2v44.4c0,4.3-2.3,6.5-6.8,6.5H486v-6.8h9.3v-44.1h-8.5v-6.8
		h41.6c4.6,0,6.9,2.3,6.9,6.8V1454.4z"/>
	<path class="st0" d="M580.4,1454.4h-6.8v-48.7c0-1.1-0.3-1.8-0.8-2c-0.3-0.1-0.7-0.2-1.4-0.2h-26.8v-6.8h28.9c4.6,0,6.9,2.3,6.9,7
		V1454.4z"/>
	<path class="st0" d="M610.8,1403.5h-7.4v50.9h-7v-50.9h-7.1l0.1-6.8h21.4V1403.5z"/>
	<path class="st0" d="M668.5,1403.5h-7.4v50.9h-6.9v-50.9h-21.6v50.9h-7v-50.9h-7.2v-6.8h50.1V1403.5z"/>
	<path class="st0" d="M728.5,1443.3c0,3.6-1.1,6.4-3.4,8.3c-2.3,1.9-5.3,2.9-9,2.9h-25.6c-3.2,0-6-1-8.4-3.1c-2.4-2.1-3.6-4.8-3.6-8
		v-39.8c0-2.7,0.5-4.5,1.5-5.4c1-0.9,2.9-1.4,5.6-1.4h6.9v6.8h-7.3v37.9c0,1.9,0.6,3.5,1.8,4.5c1.2,1.1,2.8,1.7,4.8,1.7h8.1v-50.9
		h6.8v50.9h9c4,0,6-2.1,6-6.2v-37.9H715v-6.8h6.6c2.9,0,4.7,0.3,5.5,1c1,0.9,1.5,2.8,1.5,5.8V1443.3z"/>
	<path class="st0" d="M821,1447.9c0,4.3-2.5,6.5-7.4,6.5h-22.7c-4.5,0-6.8-2.2-6.8-6.5v-44.4h-8.9v-6.8H814c2.5,0,4.3,0.5,5.4,1.3
		c1.1,0.9,1.6,2.6,1.6,5.1V1447.9z M814,1447.6v-44.1h-22.9v44.1H814z"/>
	<path class="st0" d="M850.9,1429.3h-7.1v-25.8h-13.4v-6.8H844c4.6,0,6.9,2.3,6.9,6.8V1429.3z"/>
	<path class="st0" d="M908.3,1403.5h-7.4v50.9H894v-50.9h-21.6v50.9h-7v-50.9h-7.2v-6.8h50.1V1403.5z"/>
	<path class="st0" d="M963.4,1447.6c0,4.5-2.2,6.8-6.7,6.8H944v-6.8h12.6v-36.8c0-5.7-2.6-8.6-7.9-8.6c-5.1,0-9,2.5-11.7,7.4
		c-2.2,3.9-3.3,8.7-3.3,14.4v30.4h-6.8v-51H918v-6.8h9c3.5,0,5.6,1,6.3,3.1c0.3,0.8,0.4,3.4,0.4,7.9h0.5c3.9-7.9,9-11.9,15.4-11.9
		c4.3,0,7.7,1.2,10.1,3.5c2.5,2.3,3.7,5.6,3.7,9.8V1447.6z"/>
	<path class="st0" d="M1023.4,1443.3c0,3.6-1.1,6.4-3.4,8.3c-2.3,1.9-5.3,2.9-9,2.9h-25.6c-3.2,0-6-1-8.4-3.1
		c-2.4-2.1-3.6-4.8-3.6-8v-39.8c0-2.7,0.5-4.5,1.5-5.4c1-0.9,2.9-1.4,5.6-1.4h6.9v6.8H980v37.9c0,1.9,0.6,3.5,1.9,4.5
		c1.2,1.1,2.8,1.7,4.8,1.7h8.1v-50.9h6.8v50.9h9c4,0,6-2.1,6-6.2v-37.9h-6.7v-6.8h6.6c2.9,0,4.7,0.3,5.5,1c1,0.9,1.5,2.8,1.5,5.8
		V1443.3z"/>
</g>
</svg>
