<?xml version="1.0" encoding="utf-8"?>
<!-- Generator: Adobe Illustrator 21.0.0, SVG Export Plug-In . SVG Version: 6.00 Build 0)  -->
<svg version="1.1" id="Layer_1" xmlns="http://www.w3.org/2000/svg" xmlns:xlink="http://www.w3.org/1999/xlink" x="0px" y="0px"
	 viewBox="0 0 1242 2208" style="enable-background:new 0 0 1242 2208;" xml:space="preserve">
<style type="text/css">
	.st0{fill:#00A651;}
	.st1{fill:#ED1C24;}
	.st2{fill:#FFF200;}
	.st3{fill:#F7941D;}
	.st4{fill:#00AEEF;}
	.st5{fill:#754C29;}
	.st6{fill:none;stroke:#000000;stroke-width:5.2336;stroke-miterlimit:10;}
</style>
<g>
	<polyline class="st0" points="934.1,337.6 953.3,318.9 972.9,338.1 	"/>
	<polyline class="st0" points="959.3,337.6 978.5,318.9 998.1,338.1 	"/>
	<polygon class="st1" points="193.7,136.2 371.7,136.2 277,52 	"/>
	<rect x="62.6" y="190.8" class="st2" width="111.2" height="181.6"/>
	<rect x="418.7" y="216.7" class="st3" width="83.8" height="136.8"/>
	<rect x="1076.7" y="214.3" class="st4" width="37.8" height="137.5"/>
	<g>
		<path class="st5" d="M613.3,210.8c-5.7,9.5-11,14.6-15.8,15.3l0.8,24.7c0.2,6.6-1.8,12.1-5.9,16.3c-4.2,4.2-9.3,6.4-15.5,6.6
			c-4.2,0.1-8-0.7-11.5-2.4c-3.5-1.8-5.7-3.9-6.6-6.6l6.5-6.5l1.2,1.1c-0.2,0.7-0.3,1.4-0.3,2.1c0.1,2.7,1.2,5,3.5,7
			c2.2,2,4.9,2.9,8,2.8c4.2-0.1,7.4-1.8,9.6-5c2.2-3.2,3.3-7.7,3.1-13.4l-1.1-35.2c-5,6.6-10.5,9.9-16.4,10.1
			c-4.4,0.1-8.1-1.3-11-4.4c-2.9-3.1-4.4-6.5-4.5-10.5l-0.1-3.2l-3.8,5.6l-2.7-1.7c6.1-9.1,11.2-15.3,15.1-18.7c4-3.3,8-5.1,12-5.2
			c4.4-0.1,8,1,10.6,3.4l7.9-5l1,33.4c3.7-0.4,8.2-4.6,13.5-12.6L613.3,210.8z M589.1,212.3l-0.4-14.8c-2.6-3.6-5.9-5.4-10-5.3
			c-3.8,0.1-7,1.7-9.6,4.9s-3.7,6.9-3.6,11.2c0.1,4.1,1.2,7.3,3.2,9.5s4.7,3.3,8,3.2c3.6-0.1,6.6-1.4,8.9-3.8
			C588,214.7,589.1,213.1,589.1,212.3z"/>
		<path class="st5" d="M657,210.9c-3,5.1-6.3,8.9-10,11.2c-3.7,2.4-8.5,3.6-14.6,3.8c-4.4,0.1-8-1.1-10.6-3.6
			c-2.7-2.5-4.1-6.1-4.2-10.8c0-1.2,0-2.6,0.2-4c-1.9,2.5-3.3,4.4-4.2,5.9l-2.7-1.7c6.6-9.8,11.8-16.3,15.4-19.4
			c3.7-3.1,7.4-4.7,11.4-4.8c2.2-0.1,4,0.5,5.5,1.7c1.5,1.2,2.2,2.8,2.3,4.8c0.2,6.8-5.7,13.6-17.7,20.6c1.8,3.7,5.3,5.5,10.5,5.3
			c2.5-0.1,5.3-1,8.3-2.9c3-1.9,5.7-4.5,8.1-8L657,210.9z M626,211.7c8.7-4.5,13-9.3,12.9-14.5c-0.1-1.6-0.5-2.8-1.4-3.8
			c-0.9-1-2.1-1.4-3.6-1.4c-2.7,0.1-5,1.4-6.8,3.9s-2.6,5.5-2.5,8.9c0.1,1.9,0.3,3.5,0.8,4.8C625.8,210.8,626,211.5,626,211.7z"/>
		<path class="st5" d="M692.7,209.6c-5.7,9.6-12,14.5-18.7,14.7c-3.2,0.1-5.2-0.6-6.1-2c-0.8-1.4-1.3-3.8-1.4-7.1l-0.6-18.8
			c-3.4,6-6.7,11.3-10,15.8l-2.8-1.8c1.9-2.9,3.5-5.5,4.8-7.7c1.3-2.2,2.9-5,4.8-8.5s2.9-5.5,2.8-5.9l-1-32l7.8-7.9l0.9,29.7
			l11.7-19.2l3.2,2.2l-14.7,24.3l0.7,24.1c0.1,3.7,0.3,6.1,0.7,7.3c0.4,1.2,1.3,1.8,2.7,1.8c3.6-0.1,7.8-3.7,12.6-10.9L692.7,209.6z
			"/>
	</g>
	<path d="M621.7,310.6c-3.9,14.1-13.4,25.5-31.8,25.5c-20.5,0-35.1-14.9-35.1-41.7c0-22,12-42.4,36.1-42.4
		c20.8,0,29.4,14.4,30.9,25.7h-8.4c-2.5-9.3-8.7-18.1-22.6-18.1c-17.4,0-27.2,14.4-27.2,34.5c0,19.1,9.2,34.5,26.4,34.5
		c12,0,19.2-5.9,23.5-18H621.7z"/>
	<path d="M708,293.9c0,22.3-12.6,42.2-37.1,42.2c-22.1,0-35.9-17.8-35.9-42c0-23,13-42,36.8-42C693.6,252,708,268.7,708,293.9z
		 M643.7,294.1c0,19.1,10.5,34.5,27.9,34.5c17.7,0,27.7-14.3,27.7-34.5c0-18.9-9.8-34.5-28-34.5
		C652.6,259.6,643.7,274.8,643.7,294.1z"/>
	<path d="M740,261.5v72.7h-8.2v-72.7h-14.1V254h14.1v-11.1c0-13.8,3.1-28.6,21.5-28.6c2.5,0,5.4,0.2,7.4,1.1v7.5
		c-2.3-0.8-5.6-1.1-7.9-1.1c-9.2,0-12.8,5.9-12.8,19.7v12.3h33v-11.1c0-13.8,3.4-28.6,21.5-28.6c2.5,0,5.4,0.2,7.4,1.1v7.5
		c-2.3-0.8-5.6-1.1-7.9-1.1c-9.2,0-12.8,5.9-12.8,19.7v12.3h17.4v7.5h-17.4v72.7h-8.2v-72.7L740,261.5L740,261.5z"/>
	<path d="M813.8,295c0.2,20.7,10.8,33.5,26.6,33.5c15.4,0,20.7-8.5,23.6-15.1h8.4c-3.4,10.6-12.1,22.6-32.3,22.6
		c-24.9,0-34.6-21-34.6-41.4c0-23,11.6-42.7,35.6-42.7c25.3,0,33.3,21.4,33.3,36.4c0,2.3,0,4.5-0.2,6.6L813.8,295L813.8,295z
		 M865.8,288c-0.2-15.9-9-28.4-25.1-28.4c-16.9,0-24.6,11.5-26.4,28.4H865.8z"/>
	<polyline class="st6" points="-0.5,333.4 12.5,333.4 12.5,111 45.9,111 45.9,333.4 76.3,333.4 76.3,178.9 212.2,178.9 212.2,333.4 
		242.6,333.4 242.6,151.1 213.9,151.1 304.2,62.8 397.9,154.6 365.9,154.6 365.9,333.4 397.9,333.4 397.9,212.4 485.7,212.4 
		485.7,333.4 583.7,333.4 	"/>
	<polyline class="st6" points="864.2,315.9 892.2,316.2 892.2,334.2 910,334.2 910,245.4 952.5,245.4 952.5,334.2 960,334.2 
		968.9,325.4 978,334.3 985.7,326.8 993.9,334.8 1002.5,326.3 1009.5,333.2 1017.4,333.2 1017.4,284.2 1050.5,284.2 1050.5,334.2 
		1065,334.2 1065,230.3 1104.7,230.3 1104.7,334.2 1136,334.2 1136,183.3 1227.5,183.3 1227.5,336.1 1241.5,336.1 	"/>
	<rect x="460.6" y="228.6" width="11.2" height="10.9"/>
	<rect x="460.6" y="253.4" width="11.2" height="10.9"/>
	<rect x="460.6" y="278.1" width="11.2" height="10.9"/>
	<rect x="460.6" y="302.9" width="11.2" height="10.9"/>
</g>
</svg>
