<?xml version="1.0" encoding="utf-8"?>
<!-- Generator: Adobe Illustrator 21.0.0, SVG Export Plug-In . SVG Version: 6.00 Build 0)  -->
<svg version="1.1" id="Layer_1" xmlns="http://www.w3.org/2000/svg" xmlns:xlink="http://www.w3.org/1999/xlink" x="0px" y="0px"
	 viewBox="0 0 1242 2208" style="enable-background:new 0 0 1242 2208;" xml:space="preserve">
<style type="text/css">
	.st0{fill:#FFFFFF;}
	.st1{fill:#00A651;}
	.st2{fill:#ED1C24;}
	.st3{fill:#FFF200;}
	.st4{fill:#F7941D;}
	.st5{fill:#00AEEF;}
	.st6{fill:#754C29;}
	.st7{fill:none;stroke:#000000;stroke-width:5.2336;stroke-miterlimit:10;}
</style>
<rect x="3" y="452" width="1242" height="1755"/>
<g>
	<rect x="248" y="1240.5" class="st0" width="745.9" height="120.3"/>
</g>
<g>
	<polyline class="st1" points="938.1,386.6 957.3,367.9 976.9,387.1 	"/>
	<polyline class="st1" points="963.3,386.6 982.5,367.9 1002.1,387.1 	"/>
	<polygon class="st2" points="197.7,185.2 375.7,185.2 281,101 	"/>
	<rect x="66.6" y="239.8" class="st3" width="111.2" height="181.6"/>
	<rect x="422.7" y="265.7" class="st4" width="83.8" height="136.8"/>
	<rect x="1080.7" y="263.3" class="st5" width="37.8" height="137.5"/>
	<g>
		<path class="st6" d="M617.3,259.8c-5.7,9.5-11,14.6-15.8,15.3l0.8,24.7c0.2,6.6-1.8,12.1-5.9,16.3c-4.2,4.2-9.3,6.4-15.5,6.6
			c-4.2,0.1-8-0.7-11.5-2.4c-3.5-1.8-5.7-3.9-6.6-6.6l6.5-6.5l1.2,1.1c-0.2,0.7-0.3,1.4-0.3,2.1c0.1,2.7,1.2,5,3.5,7
			c2.2,2,4.9,2.9,8,2.8c4.2-0.1,7.4-1.8,9.6-5c2.2-3.2,3.3-7.7,3.1-13.4l-1.1-35.2c-5,6.6-10.5,9.9-16.4,10.1
			c-4.4,0.1-8.1-1.3-11-4.4c-2.9-3.1-4.4-6.5-4.5-10.5l-0.1-3.2l-3.8,5.6l-2.7-1.7c6.1-9.1,11.2-15.3,15.1-18.7c4-3.3,8-5.1,12-5.2
			c4.4-0.1,8,1,10.6,3.4l7.9-5l1,33.4c3.7-0.4,8.2-4.6,13.5-12.6L617.3,259.8z M593.1,261.3l-0.4-14.8c-2.6-3.6-5.9-5.4-10-5.3
			c-3.8,0.1-7,1.7-9.6,4.9s-3.7,6.9-3.6,11.2c0.1,4.1,1.2,7.3,3.2,9.5c2,2.3,4.7,3.3,8,3.2c3.6-0.1,6.6-1.4,8.9-3.8
			C592,263.7,593.1,262.1,593.1,261.3z"/>
		<path class="st6" d="M661,259.9c-3,5.1-6.3,8.9-10,11.2s-8.5,3.6-14.6,3.8c-4.4,0.1-8-1.1-10.6-3.6c-2.7-2.5-4.1-6.1-4.2-10.8
			c0-1.2,0-2.6,0.2-4c-1.9,2.5-3.3,4.4-4.2,5.9l-2.7-1.7c6.6-9.8,11.8-16.3,15.4-19.4c3.7-3.1,7.4-4.7,11.4-4.8
			c2.2-0.1,4,0.5,5.5,1.7c1.5,1.2,2.2,2.8,2.3,4.8c0.2,6.8-5.7,13.6-17.7,20.6c1.8,3.7,5.3,5.5,10.5,5.3c2.5-0.1,5.3-1,8.3-2.9
			c3-1.9,5.7-4.5,8.1-8L661,259.9z M630,260.7c8.7-4.5,13-9.3,12.9-14.5c-0.1-1.6-0.5-2.8-1.4-3.8c-0.9-1-2.1-1.4-3.6-1.4
			c-2.7,0.1-5,1.4-6.8,3.9s-2.6,5.5-2.5,8.9c0.1,1.9,0.3,3.5,0.8,4.8C629.8,259.8,630,260.5,630,260.7z"/>
		<path class="st6" d="M696.7,258.6c-5.7,9.6-12,14.5-18.7,14.7c-3.2,0.1-5.2-0.6-6.1-2c-0.8-1.4-1.3-3.8-1.4-7.1l-0.6-18.8
			c-3.4,6-6.7,11.3-10,15.8l-2.8-1.8c1.9-2.9,3.5-5.5,4.8-7.7c1.3-2.2,2.9-5,4.8-8.5s2.9-5.5,2.8-5.9l-1-32l7.8-7.9l0.9,29.7
			l11.7-19.2l3.2,2.2l-14.7,24.3l0.7,24.1c0.1,3.7,0.3,6.1,0.7,7.3s1.3,1.8,2.7,1.8c3.6-0.1,7.8-3.7,12.6-10.9L696.7,258.6z"/>
	</g>
	<path d="M625.7,359.6c-3.9,14.1-13.4,25.5-31.8,25.5c-20.5,0-35.1-14.9-35.1-41.7c0-22,12-42.4,36.1-42.4
		c20.8,0,29.4,14.4,30.9,25.7h-8.4c-2.5-9.3-8.7-18.1-22.6-18.1c-17.4,0-27.2,14.4-27.2,34.5c0,19.1,9.2,34.5,26.4,34.5
		c12,0,19.2-5.9,23.5-18H625.7z"/>
	<path d="M712,342.9c0,22.3-12.6,42.2-37.1,42.2c-22.1,0-35.9-17.8-35.9-42c0-23,13-42,36.8-42C697.6,301,712,317.7,712,342.9z
		 M647.7,343.1c0,19.1,10.5,34.5,27.9,34.5c17.7,0,27.7-14.3,27.7-34.5c0-18.9-9.8-34.5-28-34.5
		C656.6,308.6,647.7,323.8,647.7,343.1z"/>
	<path d="M744,310.5v72.7h-8.2v-72.7h-14.1V303h14.1v-11.1c0-13.8,3.1-28.6,21.5-28.6c2.5,0,5.4,0.2,7.4,1.1v7.5
		c-2.3-0.8-5.6-1.1-7.9-1.1c-9.2,0-12.8,5.9-12.8,19.7v12.3h33v-11.1c0-13.8,3.4-28.6,21.5-28.6c2.5,0,5.4,0.2,7.4,1.1v7.5
		c-2.3-0.8-5.6-1.1-7.9-1.1c-9.2,0-12.8,5.9-12.8,19.7v12.3h17.4v7.5h-17.4v72.7h-8.2v-72.7L744,310.5L744,310.5z"/>
	<path d="M817.8,344c0.2,20.7,10.8,33.5,26.6,33.5c15.4,0,20.7-8.5,23.6-15.1h8.4c-3.4,10.6-12.1,22.6-32.3,22.6
		c-24.9,0-34.6-21-34.6-41.4c0-23,11.6-42.7,35.6-42.7c25.3,0,33.3,21.4,33.3,36.4c0,2.3,0,4.5-0.2,6.6L817.8,344L817.8,344z
		 M869.8,337c-0.2-15.9-9-28.4-25.1-28.4c-16.9,0-24.6,11.5-26.4,28.4H869.8z"/>
	<polyline class="st7" points="3.5,382.4 16.5,382.4 16.5,160 49.9,160 49.9,382.4 80.3,382.4 80.3,227.9 216.2,227.9 216.2,382.4 
		246.6,382.4 246.6,200.1 217.9,200.1 308.2,111.8 401.9,203.6 369.9,203.6 369.9,382.4 401.9,382.4 401.9,261.4 489.7,261.4 
		489.7,382.4 587.7,382.4 	"/>
	<polyline class="st7" points="868.2,364.9 896.2,365.2 896.2,383.2 914,383.2 914,294.4 956.5,294.4 956.5,383.2 964,383.2 
		972.9,374.4 982,383.3 989.7,375.8 997.9,383.8 1006.5,375.3 1013.5,382.2 1021.4,382.2 1021.4,333.2 1054.5,333.2 1054.5,383.2 
		1069,383.2 1069,279.3 1108.7,279.3 1108.7,383.2 1140,383.2 1140,232.3 1231.5,232.3 1231.5,385.1 1245.5,385.1 	"/>
	<rect x="464.6" y="277.6" width="11.2" height="10.9"/>
	<rect x="464.6" y="302.4" width="11.2" height="10.9"/>
	<rect x="464.6" y="327.1" width="11.2" height="10.9"/>
	<rect x="464.6" y="351.9" width="11.2" height="10.9"/>
</g>
<g>
	<path class="st4" d="M655.5,1019.7c-0.1-0.5-0.1-1-0.2-1.5c-0.1-0.4-0.2-0.8-0.3-1.1l-0.3-1.2c-0.1-0.3-0.2-0.7-0.3-1
		c-0.2-0.5-0.3-1-0.5-1.4l-0.4-1.1c-0.1-0.2-0.1-0.4-0.2-0.6c-0.3-0.7-0.6-1.3-0.9-1.9l-0.4-0.7c-0.1-0.1-0.1-0.3-0.2-0.4
		c-0.4-0.8-0.9-1.5-1.4-2.3c-0.1-0.1-0.2-0.3-0.3-0.4c-0.6-1-1.2-1.8-1.9-2.5l-0.2-0.3c-0.7-0.8-1.4-1.6-2.2-2.4l-0.2-0.2
		c-6.4-6.5-15.2-10.2-24.5-10.3l-0.4,0c-19.3,0-35,15.7-35,35.1c0,19.3,15.7,35.1,35,35.1l0.4,0c9.3-0.1,18-3.8,24.5-10.4
		c0.9-0.9,1.6-1.7,2.2-2.5c0.1-0.1,0.2-0.2,0.3-0.4c0.6-0.7,1.2-1.5,1.7-2.3c0.2-0.3,0.3-0.5,0.4-0.6c0.5-0.7,1-1.5,1.4-2.3
		c0.1-0.1,0.1-0.2,0.2-0.4c0.1-0.2,0.2-0.4,0.3-0.6l0.2-0.3c0.3-0.6,0.6-1.2,0.9-1.8c0.1-0.2,0.2-0.4,0.2-0.6l0.4-1.2
		c0.2-0.5,0.4-0.9,0.5-1.4c0.1-0.3,0.2-0.7,0.3-1l0.3-1.3c0.1-0.4,0.2-0.7,0.3-1.1c0.1-0.5,0.2-1,0.2-1.5l0.2-1.2
		c0-0.2,0.1-0.5,0.1-0.7c0.1-1.2,0.2-2.4,0.2-3.6c0-1.2-0.1-2.4-0.2-3.6c0-0.2-0.1-0.5-0.1-0.7L655.5,1019.7z"/>
	<path class="st4" d="M682.1,1071.1c0.4-0.6,0.7-1.2,1.2-2c0.1-0.1,0.1-0.2,0.2-0.3c0.9-1.7,2.4-4.3,2.4-4.4
		c5.7-11.2,8.6-23.3,8.6-35.9c0-1.4,0-2.7-0.1-4c0-0.6-0.1-1.2-0.1-1.7l-0.1-1.1c0-0.4,0-0.7-0.1-1.1c0-0.5-0.1-0.9-0.2-1.4l-0.1-1
		c0-0.5-0.1-1-0.2-1.5c-0.1-0.4-0.1-0.8-0.2-1.1l-0.2-1c-0.1-0.6-0.2-1.1-0.3-1.6c-0.1-0.4-0.2-0.9-0.3-1.3l-0.2-1.2
		c-0.1-0.4-0.2-0.8-0.3-1.2c-0.1-0.6-0.3-1.1-0.4-1.7l-0.3-1c-0.1-0.3-0.1-0.6-0.2-0.9c-0.2-0.6-0.4-1.2-0.6-1.8l-0.2-0.8
		c-0.1-0.3-0.2-0.6-0.3-0.9c-0.2-0.6-0.4-1.2-0.6-1.8l-0.3-0.8c-0.1-0.3-0.2-0.6-0.3-0.8c-0.3-0.7-0.5-1.3-0.8-2l-0.3-0.7
		c-0.1-0.2-0.2-0.4-0.3-0.6c-0.4-0.9-0.8-1.7-1.2-2.6l-0.3-0.6c-0.4-0.9-0.9-1.7-1.5-2.7l-0.2-0.4c-0.5-0.9-1-1.7-1.7-2.7
		c0,0-0.1-0.2-0.2-0.3c-0.6-0.9-1.1-1.7-1.8-2.6c0,0-0.1-0.2-0.2-0.3c-0.6-0.9-1.3-1.7-1.9-2.5c0,0-0.1-0.2-0.2-0.2
		c-0.7-0.9-1.4-1.7-2.2-2.6c-0.8-0.8-1.6-1.7-2.4-2.5c0,0,0,0,0,0C660.8,962.1,642.4,955,621,955c-43.3,0-73.6,30.3-73.6,73.6
		c0,13.4,3.4,26.6,9.9,38.3l1.1,2c0,0.1,0.1,0.2,0.1,0.2l1.9,2.8c0.2,0.3,0.4,0.6,0.5,0.8l47.1,79.1h0l10.9,18.3
		c0.6,1,1.7,1.6,2.8,1.6c0,0,0,0,0,0c1.2,0,2.2-0.6,2.8-1.6l10.6-18.3h0l45.9-79C681.4,1072.3,681.8,1071.7,682.1,1071.1z
		 M662.2,1029.4c0,0.4-0.1,0.8-0.2,1.2l-0.1,1c-0.1,0.7-0.2,1.3-0.3,2c-0.1,0.5-0.2,1-0.4,1.5l-0.3,1.1c-0.1,0.5-0.2,0.9-0.4,1.4
		c-0.2,0.6-0.4,1.2-0.7,1.8l-0.4,1c-0.1,0.3-0.2,0.7-0.4,1c-0.3,0.8-0.7,1.5-1.1,2.2l-0.3,0.7c-0.1,0.3-0.2,0.5-0.4,0.7
		c-0.5,0.9-1.1,1.8-1.6,2.7c-0.2,0.4-0.3,0.5-0.4,0.7c-0.6,1-1.3,1.9-2.1,2.8c-0.1,0.2-0.2,0.3-0.3,0.4c-0.8,0.9-1.6,1.9-2.5,2.8
		c-7.9,8-18.2,12.3-29.3,12.4c-0.1,0-0.3,0-0.4,0c-22.9,0-41.6-18.7-41.6-41.6c0-22.9,18.7-41.6,41.6-41.6l0.4,0
		c11,0.1,21.4,4.5,29.1,12.3l0.2,0.2c0.9,0.9,1.7,1.9,2.5,2.7c0.1,0.1,0.2,0.2,0.3,0.4c0.7,0.9,1.5,1.9,2.1,2.8
		c0.1,0.2,0.2,0.3,0.3,0.5c0.7,1.1,1.2,1.9,1.7,2.9c0.1,0.3,0.3,0.5,0.4,0.8l0.2,0.3c0.5,1,0.9,1.7,1.2,2.5c0.1,0.3,0.3,0.7,0.4,1
		l0.3,0.9c0.2,0.6,0.5,1.2,0.7,1.8c0.1,0.5,0.3,0.9,0.4,1.4l0.3,1c0.1,0.5,0.3,1,0.4,1.5c0.1,0.6,0.2,1.3,0.3,2l0.2,1
		c0.1,0.4,0.1,0.8,0.2,1.1c0.1,1.4,0.2,2.8,0.2,4.2C662.4,1026.6,662.4,1028,662.2,1029.4z"/>
</g>
<g>
	<path d="M709.9,1307.6h-36v-5.5h36V1307.6z"/>
	<path d="M782,1333.1h-10.3c-1.8,0-2.7-0.9-2.7-2.8v-48.8h-21.3v-5.5h33.9v5.5H775v45.9h7V1333.1z"/>
	<path d="M826.3,1317.2c0,3.7-1.8,5.5-5.5,5.5h-10.3v-5.5h10.2v-29.8c0-4.6-2.1-7-6.4-7c-4.2,0-7.3,2-9.5,6
		c-1.8,3.2-2.7,7.1-2.7,11.7v24.6h-5.5v-41.3h-7.2v-5.5h7.3c2.8,0,4.5,0.8,5.1,2.5c0.2,0.6,0.3,2.8,0.3,6.4h0.4
		c3.1-6.4,7.3-9.6,12.4-9.6c3.5,0,6.2,0.9,8.2,2.8c2,1.9,3,4.5,3,7.9V1317.2z"/>
	<path d="M851.6,1322.7H846v-39.6c0-1.1-0.5-1.6-1.4-1.6h-10.4v-5.5h12c3.6,0,5.4,1.9,5.4,5.7V1322.7z"/>
	<path d="M890.3,1297c0,1-0.7,2.3-2.1,4l-9.6,11.9c-0.8,0.9-1.1,1.8-1.1,2.7c0,1,0.3,1.5,1,1.5h5.9v5.5H874c-1.2,0-1.9-1.1-1.9-3.2
		v-5.9c0-1.3,0.9-3,2.7-5.1l9.4-11.2c0.5-0.6,0.8-1.2,0.8-1.5v-12.2c0-1.4-0.7-2.1-2.2-2.1h-25v-5.5H885c1.6,0,2.9,0.5,3.9,1.5
		c1,1,1.4,2.3,1.4,4V1297z M865.6,1333.1h-5.5v-43.3h5.5V1333.1z"/>
	<path d="M914.2,1302.4h-5.8v-20.9h-10.9v-5.5h11c3.7,0,5.6,1.8,5.6,5.5V1302.4z"/>
	<path d="M956.9,1317.2c0,3.7-1.8,5.5-5.5,5.5h-10.3v-5.5h10.2v-29.8c0-4.6-2.1-7-6.4-7c-4.2,0-7.3,2-9.5,6
		c-1.8,3.2-2.7,7.1-2.7,11.7v24.6h-5.5v-41.3h-7.2v-5.5h7.3c2.8,0,4.5,0.8,5.1,2.5c0.2,0.6,0.3,2.8,0.3,6.4h0.4
		c3.1-6.4,7.3-9.6,12.4-9.6c3.5,0,6.2,0.9,8.2,2.8c2,1.9,3,4.5,3,7.9V1317.2z"/>
	<path class="st4" d="M394.2,1451.7H390v-15.5h-8v-4.1h8.2c2.8,0,4.1,1.4,4.1,4.1V1451.7z"/>
	<path class="st4" d="M420.5,1446.9c0,1-0.3,1.7-1,2.3l-11.6,10.7c-0.3,0.2-0.4,0.6-0.4,1.2c0,1,0.4,1.4,1.3,1.4h4.5v4.1h-7.6
		c-1.4,0-2.1-0.8-2.1-2.3v-4.7c0-1,0.7-2.2,2.2-3.5l9.4-8.5c0.5-0.4,0.7-1,0.7-1.6v-8.6c0-0.9-0.4-1.3-1.2-1.3h-13
		c-2.1,0-3.1-1.4-3.1-4.1v-6.5h4.7v6.5h13.1c1.2,0,2.2,0.4,2.9,1.2c0.7,0.8,1.1,1.8,1.1,3L420.5,1446.9z"/>
	<path class="st4" d="M455.6,1460.1c0,2.2-0.7,3.8-2.1,5c-1.4,1.1-3.2,1.7-5.4,1.7h-15.4c-1.9,0-3.6-0.6-5.1-1.9s-2.2-2.9-2.2-4.8
		v-23.9c0-1.6,0.3-2.7,0.9-3.2c0.6-0.6,1.7-0.8,3.4-0.8h4.2v4.1h-4.4v22.7c0,1.2,0.4,2.1,1.1,2.7c0.7,0.7,1.7,1,2.9,1h4.9v-30.5h4.1
		v30.5h5.4c2.4,0,3.6-1.2,3.6-3.7v-22.7h-4v-4.1h3.9c1.7,0,2.8,0.2,3.3,0.6c0.6,0.5,0.9,1.7,0.9,3.5V1460.1z"/>
	<path class="st4" d="M511.1,1462.8c0,2.6-1.5,3.9-4.4,3.9H493c-2.7,0-4.1-1.3-4.1-3.9v-26.6h-5.3v-4.1h23.3c1.5,0,2.6,0.3,3.2,0.8
		c0.6,0.5,1,1.6,1,3V1462.8z M506.9,1462.6v-26.5h-13.7v26.5H506.9z"/>
	<path class="st4" d="M529.6,1466.7h-4.1v-29.3c0-0.8-0.3-1.2-1-1.2h-7.7v-4.1h8.9c2.7,0,4,1.4,4,4.2V1466.7z"/>
	<path class="st4" d="M558.3,1447.7c0,0.7-0.5,1.7-1.6,3l-7.1,8.8c-0.6,0.7-0.8,1.3-0.8,2c0,0.8,0.3,1.1,0.8,1.1h4.4v4.1h-7.7
		c-0.9,0-1.4-0.8-1.4-2.3v-4.4c0-1,0.7-2.2,2-3.8l7-8.3c0.4-0.5,0.6-0.9,0.6-1.1v-9.1c0-1-0.5-1.6-1.6-1.6h-18.5v-4.1h20.2
		c1.2,0,2.2,0.4,2.9,1.1c0.7,0.8,1.1,1.7,1.1,2.9V1447.7z M540,1474.4h-4.1v-32h4.1V1474.4z"/>
	<path class="st4" d="M576,1451.7h-4.3v-15.5h-8v-4.1h8.2c2.8,0,4.1,1.4,4.1,4.1V1451.7z"/>
	<path class="st4" d="M607.6,1462.6c0,2.7-1.3,4.1-4,4.1H596v-4.1h7.6v-22.1c0-3.4-1.6-5.2-4.7-5.2c-3.1,0-5.4,1.5-7,4.4
		c-1.3,2.4-2,5.2-2,8.6v18.2h-4.1v-30.6h-5.3v-4.1h5.4c2.1,0,3.3,0.6,3.8,1.9c0.2,0.5,0.2,2.1,0.2,4.7h0.3c2.3-4.8,5.4-7.1,9.2-7.1
		c2.6,0,4.6,0.7,6.1,2.1c1.5,1.4,2.2,3.3,2.2,5.9V1462.6z"/>
	<path class="st4" d="M638.5,1466.7h-4v-28.6c0-1.3-0.6-2-1.9-2h-19.3v-4.1h21.1c1.1,0,2.1,0.4,2.9,1.3s1.2,1.8,1.2,3V1466.7z
		 M617.9,1466.7h-4v-22.6h4V1466.7z"/>
	<path class="st4" d="M695.7,1466.7h-4.2v-29.6c0-0.6-0.2-1-0.6-1h-15.1v26.6c0,2.6-1.4,3.9-4.1,3.9h-5.6v-4.1h5.6v-26.5h-5.1v-4.1
		h25c2.8,0,4.1,1.4,4.1,4.1V1466.7z"/>
	<path class="st4" d="M731.3,1466.7h-4.7l-14.6-20c-2.3,0.8-3.8,2-4.5,3.7c-0.6,1.2-0.8,3.1-0.8,5.9v6.4h6.3v4.1h-8.1
		c-1.5,0-2.3-1.3-2.3-3.9v-8.8c0-4.8,2.4-8.4,7.1-10.7l-8.5-10.8l0.1-0.5h4.9l12.4,16.9c2.1,0,3.8-0.6,5-1.7
		c1.2-1.2,1.8-2.8,1.8-4.9v-5.1c0-0.7-0.4-1-1.3-1h-4.4v-4.1h5.9c1.2,0,2.2,0.5,2.9,1.6c0.6,0.9,0.9,2,0.9,3.3v5.5
		c0,2.5-0.7,4.6-2.2,6.4c-1.5,1.8-3.4,3-5.8,3.6l9.8,13.7V1466.7z"/>
	<path class="st4" d="M789.5,1466.7h-4.7l-14.6-20c-2.3,0.8-3.8,2-4.5,3.7c-0.6,1.2-0.8,3.1-0.8,5.9v6.4h6.3v4.1h-8.1
		c-1.5,0-2.3-1.3-2.3-3.9v-8.8c0-4.8,2.4-8.4,7.1-10.7l-8.5-10.8l0.1-0.5h4.9l12.4,16.9c2.1,0,3.8-0.6,5-1.7
		c1.2-1.2,1.8-2.8,1.8-4.9v-5.1c0-0.7-0.4-1-1.3-1h-4.4v-4.1h5.9c1.2,0,2.2,0.5,2.9,1.6c0.6,0.9,0.9,2,0.9,3.3v5.5
		c0,2.5-0.7,4.6-2.2,6.4c-1.5,1.8-3.4,3-5.8,3.6l9.8,13.7V1466.7z"/>
	<path class="st4" d="M822.6,1437c0,4-1.7,7.5-5.1,10.3l-3.7,3.1c2.4,2,4.1,3.5,4.9,4.4c1.8,2,2.8,4,2.8,5.8c0,2.8-0.7,4.9-2,6.2
		h-23.5v-4.1h20.9c0.4-0.4,0.5-1,0.5-1.7c0-1.7-1.4-3.7-4.3-6.2l-8.9-7.5c-1.8-1.5-2.7-3.2-2.7-5.3v-3.9c0-1.3-0.3-1.9-0.8-1.9h-5.3
		v-4.1h6.2c2.6,0,4,1.6,4,4.9v3.3c0,2.2,0.7,3.9,2.1,5.1l3.3,2.8l4.3-3.7c0.9-0.8,1.7-1.8,2.4-3.1c0.7-1.3,1-2.5,1-3.6
		c0-1-0.6-1.6-1.7-1.6H813v-4.1h6.1C821.4,1432.1,822.6,1433.7,822.6,1437z"/>
	<path class="st4" d="M855.6,1462.6c0,2.7-1.3,4.1-4,4.1H844v-4.1h7.6v-22.1c0-3.4-1.6-5.2-4.7-5.2c-3.1,0-5.4,1.5-7,4.4
		c-1.3,2.4-2,5.2-2,8.6v18.2h-4.1v-30.6h-5.3v-4.1h5.4c2.1,0,3.3,0.6,3.8,1.9c0.2,0.5,0.2,2.1,0.2,4.7h0.3c2.3-4.8,5.4-7.1,9.2-7.1
		c2.6,0,4.6,0.7,6.1,2.1c1.5,1.4,2.2,3.3,2.2,5.9V1462.6z"/>
</g>
<g>
	<rect x="248" y="1618.5" class="st0" width="745.9" height="120.3"/>
</g>
<g>
	<path d="M358.9,1685.6h-36v-5.5h36V1685.6z"/>
	<path d="M431.1,1711.1h-10.3c-1.8,0-2.7-0.9-2.7-2.8v-48.8h-21.3v-5.5h33.9v5.5h-6.7v45.9h7V1711.1z"/>
	<path d="M468,1674c0,1.3-0.4,2.3-1.3,3.2l-15.6,14.5c-0.4,0.3-0.6,0.9-0.6,1.6c0,1.3,0.6,1.9,1.8,1.9h6v5.5H448
		c-1.9,0-2.8-1-2.8-3.1v-6.4c0-1.3,1-2.9,3-4.7l12.7-11.5c0.6-0.6,1-1.3,1-2.2v-11.6c0-1.2-0.5-1.8-1.6-1.8h-17.6
		c-2.8,0-4.2-1.8-4.2-5.5v-8.8h6.3v8.8h17.7c1.6,0,3,0.5,3.9,1.6c1,1.1,1.5,2.4,1.5,4L468,1674z"/>
	<path d="M515.4,1691.7c0,2.9-0.9,5.1-2.8,6.7c-1.9,1.5-4.3,2.3-7.3,2.3h-20.8c-2.6,0-4.9-0.9-6.8-2.6s-3-3.8-3-6.4v-32.2
		c0-2.2,0.4-3.6,1.2-4.4c0.8-0.8,2.3-1.1,4.5-1.1h5.6v5.5h-5.9v30.7c0,1.6,0.5,2.8,1.5,3.7c1,0.9,2.3,1.3,3.9,1.3h6.6V1654h5.5v41.2
		h7.3c3.3,0,4.9-1.7,4.9-5v-30.7h-5.5v-5.5h5.3c2.3,0,3.8,0.3,4.4,0.8c0.8,0.7,1.2,2.3,1.2,4.7V1691.7z"/>
	<path d="M587.2,1700.7h-5.4v-38.6c0-1.8-0.8-2.7-2.5-2.7h-26v-5.5h28.5c1.5,0,2.8,0.6,3.9,1.7c1,1.1,1.6,2.5,1.6,4.1V1700.7z
		 M559.2,1700.7h-5.4v-30.5h5.4V1700.7z"/>
	<path d="M631.1,1685.1c0,4.3-1.5,7.9-4.6,11c-3.1,3.1-6.8,4.6-11.1,4.6h-21.2v-5.5h9v-34.7c0-0.7-0.3-1.1-1-1.1h-8v-5.5h9
		c2,0,3.4,0.4,4.2,1.3c0.9,0.8,1.3,2.3,1.3,4.3v35.7h5.5c7.5,0,11.3-3.7,11.3-11v-23.3c0-0.9-0.4-1.4-1.1-1.4h-6.6v-5.5h7.6
		c2.2,0,3.6,0.4,4.4,1.2c0.8,0.8,1.2,2.3,1.2,4.4V1685.1z"/>
	<path d="M662.1,1700.7h-5.8v-12.5c-4.2,7.7-10,12.1-17.4,13.1v-5.8c7.8-2,13.2-6.5,16-13.5c0.9-2.2,1.4-4.1,1.4-5.6v-14.5
		c0-1.6-0.9-2.4-2.6-2.4h-9.2v-5.5H656c4,0,6.1,1.9,6.1,5.8V1700.7z"/>
	<path d="M702.2,1700.7h-5.4v-38.6c0-1.8-0.8-2.7-2.5-2.7h-26v-5.5h28.5c1.5,0,2.8,0.6,3.9,1.7c1,1.1,1.6,2.5,1.6,4.1V1700.7z
		 M674.3,1700.7h-5.4v-30.5h5.4V1700.7z"/>
	<path d="M743.1,1700.7h-5.4v-38.6c0-1.8-0.8-2.7-2.5-2.7h-26v-5.5h28.5c1.5,0,2.8,0.6,3.9,1.7c1,1.1,1.6,2.5,1.6,4.1V1700.7z
		 M715.2,1700.7h-5.4v-30.5h5.4V1700.7z"/>
	<path d="M820.2,1700.7h-5.7v-39.9c0-0.9-0.3-1.3-0.8-1.3h-20.4v36c0,3.5-1.8,5.3-5.5,5.3h-7.5v-5.5h7.5v-35.7h-6.9v-5.5h33.7
		c3.7,0,5.6,1.8,5.6,5.5V1700.7z"/>
	<path d="M864.7,1685.1c0,4.3-1.5,7.9-4.6,11c-3.1,3.1-6.8,4.6-11.1,4.6h-21.2v-5.5h9v-34.7c0-0.7-0.3-1.1-1-1.1h-8v-5.5h9
		c2,0,3.4,0.4,4.2,1.3c0.8,0.8,1.3,2.3,1.3,4.3v35.7h5.5c7.5,0,11.3-3.7,11.3-11v-23.3c0-0.9-0.4-1.4-1.1-1.4h-6.6v-5.5h7.6
		c2.2,0,3.6,0.4,4.4,1.2c0.8,0.8,1.2,2.3,1.2,4.4V1685.1z"/>
	<path d="M913.1,1691.7c0,2.9-0.9,5.1-2.8,6.7c-1.9,1.5-4.3,2.3-7.3,2.3h-20.8c-2.6,0-4.9-0.9-6.8-2.6s-3-3.8-3-6.4v-32.2
		c0-2.2,0.4-3.6,1.2-4.4c0.8-0.8,2.3-1.1,4.5-1.1h5.6v5.5H878v30.7c0,1.6,0.5,2.8,1.5,3.7c1,0.9,2.3,1.3,3.9,1.3h6.6V1654h5.5v41.2
		h7.3c3.3,0,4.9-1.7,4.9-5v-30.7h-5.5v-5.5h5.3c2.3,0,3.8,0.3,4.4,0.8c0.8,0.7,1.2,2.3,1.2,4.7V1691.7z"/>
</g>
</svg>
