<?xml version="1.0" encoding="utf-8"?>
<!-- Generator: Adobe Illustrator 21.0.0, SVG Export Plug-In . SVG Version: 6.00 Build 0)  -->
<svg version="1.1" id="Layer_1" xmlns="http://www.w3.org/2000/svg" xmlns:xlink="http://www.w3.org/1999/xlink" x="0px" y="0px"
	 viewBox="0 0 1242 2208" style="enable-background:new 0 0 1242 2208;" xml:space="preserve">
<style type="text/css">
	.st0{fill:#F7941D;}
</style>
<g>
	<path class="st0" d="M655.5,1019.7c-0.1-0.5-0.1-1-0.2-1.5c-0.1-0.4-0.2-0.8-0.3-1.1l-0.3-1.2c-0.1-0.3-0.2-0.7-0.3-1
		c-0.2-0.5-0.3-1-0.5-1.4l-0.4-1.1c-0.1-0.2-0.1-0.4-0.2-0.6c-0.3-0.7-0.6-1.3-0.9-1.9l-0.4-0.7c-0.1-0.1-0.1-0.3-0.2-0.4
		c-0.4-0.8-0.9-1.5-1.4-2.3c-0.1-0.1-0.2-0.3-0.3-0.4c-0.6-1-1.2-1.8-1.9-2.5l-0.2-0.3c-0.7-0.8-1.4-1.6-2.2-2.4l-0.2-0.2
		c-6.4-6.5-15.2-10.2-24.5-10.3l-0.4,0c-19.3,0-35,15.7-35,35.1c0,19.3,15.7,35.1,35,35.1l0.4,0c9.3-0.1,18-3.8,24.5-10.4
		c0.9-0.9,1.6-1.7,2.2-2.5c0.1-0.1,0.2-0.2,0.3-0.4c0.6-0.7,1.2-1.5,1.7-2.3c0.2-0.3,0.3-0.5,0.4-0.6c0.5-0.7,1-1.5,1.4-2.3
		c0.1-0.1,0.1-0.2,0.2-0.4c0.1-0.2,0.2-0.4,0.3-0.6l0.2-0.3c0.3-0.6,0.6-1.2,0.9-1.8c0.1-0.2,0.2-0.4,0.2-0.6l0.4-1.2
		c0.2-0.5,0.4-0.9,0.5-1.4c0.1-0.3,0.2-0.7,0.3-1l0.3-1.3c0.1-0.4,0.2-0.7,0.3-1.1c0.1-0.5,0.2-1,0.2-1.5l0.2-1.2
		c0-0.2,0.1-0.5,0.1-0.7c0.1-1.2,0.2-2.4,0.2-3.6c0-1.2-0.1-2.4-0.2-3.6c0-0.2-0.1-0.5-0.1-0.7L655.5,1019.7z"/>
	<path class="st0" d="M682.1,1071.1c0.4-0.6,0.7-1.2,1.2-2c0.1-0.1,0.1-0.2,0.2-0.3c0.9-1.7,2.4-4.3,2.4-4.4
		c5.7-11.2,8.6-23.3,8.6-35.9c0-1.4,0-2.7-0.1-4c0-0.6-0.1-1.2-0.1-1.7l-0.1-1.1c0-0.4,0-0.7-0.1-1.1c0-0.5-0.1-0.9-0.2-1.4l-0.1-1
		c0-0.5-0.1-1-0.2-1.5c-0.1-0.4-0.1-0.8-0.2-1.1l-0.2-1c-0.1-0.6-0.2-1.1-0.3-1.6c-0.1-0.4-0.2-0.9-0.3-1.3l-0.2-1.2
		c-0.1-0.4-0.2-0.8-0.3-1.2c-0.1-0.6-0.3-1.1-0.4-1.7l-0.3-1c-0.1-0.3-0.1-0.6-0.2-0.9c-0.2-0.6-0.4-1.2-0.6-1.8l-0.2-0.8
		c-0.1-0.3-0.2-0.6-0.3-0.9c-0.2-0.6-0.4-1.2-0.6-1.8l-0.3-0.8c-0.1-0.3-0.2-0.6-0.3-0.8c-0.3-0.7-0.5-1.3-0.8-2l-0.3-0.7
		c-0.1-0.2-0.2-0.4-0.3-0.6c-0.4-0.9-0.8-1.7-1.2-2.6l-0.3-0.6c-0.4-0.9-0.9-1.7-1.5-2.7l-0.2-0.4c-0.5-0.9-1-1.7-1.7-2.7
		c0,0-0.1-0.2-0.2-0.3c-0.6-0.9-1.1-1.7-1.8-2.6c0,0-0.1-0.2-0.2-0.3c-0.6-0.9-1.3-1.7-1.9-2.5c0,0-0.1-0.2-0.2-0.2
		c-0.7-0.9-1.4-1.7-2.2-2.6c-0.8-0.8-1.6-1.7-2.4-2.5c0,0,0,0,0,0C660.8,962.1,642.4,955,621,955c-43.3,0-73.6,30.3-73.6,73.6
		c0,13.4,3.4,26.6,9.9,38.3l1.1,2c0,0.1,0.1,0.2,0.1,0.2l1.9,2.8c0.2,0.3,0.4,0.6,0.5,0.8l47.1,79.1h0l10.9,18.3
		c0.6,1,1.7,1.6,2.8,1.6c0,0,0,0,0,0c1.2,0,2.2-0.6,2.8-1.6l10.6-18.3h0l45.9-79C681.4,1072.3,681.8,1071.7,682.1,1071.1z
		 M662.2,1029.4c0,0.4-0.1,0.8-0.2,1.2l-0.1,1c-0.1,0.7-0.2,1.3-0.3,2c-0.1,0.5-0.2,1-0.4,1.5l-0.3,1.1c-0.1,0.5-0.2,0.9-0.4,1.4
		c-0.2,0.6-0.4,1.2-0.7,1.8l-0.4,1c-0.1,0.3-0.2,0.7-0.4,1c-0.3,0.8-0.7,1.5-1.1,2.2l-0.3,0.7c-0.1,0.3-0.2,0.5-0.4,0.7
		c-0.5,0.9-1.1,1.8-1.6,2.7c-0.2,0.4-0.3,0.5-0.4,0.7c-0.6,1-1.3,1.9-2.1,2.8c-0.1,0.2-0.2,0.3-0.3,0.4c-0.8,0.9-1.6,1.9-2.5,2.8
		c-7.9,8-18.2,12.3-29.3,12.4c-0.1,0-0.3,0-0.4,0c-22.9,0-41.6-18.7-41.6-41.6c0-22.9,18.7-41.6,41.6-41.6l0.4,0
		c11,0.1,21.4,4.5,29.1,12.3l0.2,0.2c0.9,0.9,1.7,1.9,2.5,2.7c0.1,0.1,0.2,0.2,0.3,0.4c0.7,0.9,1.5,1.9,2.1,2.8
		c0.1,0.2,0.2,0.3,0.3,0.5c0.7,1.1,1.2,1.9,1.7,2.9c0.1,0.3,0.3,0.5,0.4,0.8l0.2,0.3c0.5,1,0.9,1.7,1.2,2.5c0.1,0.3,0.3,0.7,0.4,1
		l0.3,0.9c0.2,0.6,0.5,1.2,0.7,1.8c0.1,0.5,0.3,0.9,0.4,1.4l0.3,1c0.1,0.5,0.3,1,0.4,1.5c0.1,0.6,0.2,1.3,0.3,2l0.2,1
		c0.1,0.4,0.1,0.8,0.2,1.1c0.1,1.4,0.2,2.8,0.2,4.2C662.4,1026.6,662.4,1028,662.2,1029.4z"/>
</g>
</svg>
