<?xml version="1.0" encoding="utf-8"?>
<!-- Generator: Adobe Illustrator 21.0.0, SVG Export Plug-In . SVG Version: 6.00 Build 0)  -->
<svg version="1.1" id="Layer_1" xmlns="http://www.w3.org/2000/svg" xmlns:xlink="http://www.w3.org/1999/xlink" x="0px" y="0px"
	 viewBox="0 0 1242 2208" style="enable-background:new 0 0 1242 2208;" xml:space="preserve">
<style type="text/css">
	.st0{fill:#F7941D;}
</style>
<g>
	<path class="st0" d="M394.2,1448.4H390v-15.5h-8v-4.1h8.2c2.8,0,4.1,1.4,4.1,4.1V1448.4z"/>
	<path class="st0" d="M420.5,1443.6c0,1-0.3,1.7-1,2.3l-11.6,10.7c-0.3,0.2-0.4,0.6-0.4,1.2c0,1,0.4,1.4,1.3,1.4h4.5v4.1h-7.6
		c-1.4,0-2.1-0.8-2.1-2.3v-4.7c0-1,0.7-2.2,2.2-3.5l9.4-8.5c0.5-0.4,0.7-1,0.7-1.6v-8.6c0-0.9-0.4-1.3-1.2-1.3h-13
		c-2.1,0-3.1-1.4-3.1-4.1v-6.5h4.7v6.5h13.1c1.2,0,2.2,0.4,2.9,1.2c0.7,0.8,1.1,1.8,1.1,3L420.5,1443.6z"/>
	<path class="st0" d="M455.6,1456.8c0,2.2-0.7,3.8-2.1,5c-1.4,1.1-3.2,1.7-5.4,1.7h-15.4c-1.9,0-3.6-0.6-5.1-1.9
		c-1.5-1.3-2.2-2.9-2.2-4.8v-23.9c0-1.6,0.3-2.7,0.9-3.2c0.6-0.6,1.7-0.8,3.4-0.8h4.2v4.1h-4.4v22.7c0,1.2,0.4,2.1,1.1,2.7
		c0.7,0.7,1.7,1,2.9,1h4.9v-30.5h4.1v30.5h5.4c2.4,0,3.6-1.2,3.6-3.7v-22.7h-4v-4.1h3.9c1.7,0,2.8,0.2,3.3,0.6
		c0.6,0.5,0.9,1.7,0.9,3.5V1456.8z"/>
	<path class="st0" d="M511.1,1459.5c0,2.6-1.5,3.9-4.4,3.9H493c-2.7,0-4.1-1.3-4.1-3.9v-26.6h-5.3v-4.1h23.3c1.5,0,2.6,0.3,3.2,0.8
		c0.6,0.5,1,1.5,1,3V1459.5z M506.9,1459.4v-26.5h-13.7v26.5H506.9z"/>
	<path class="st0" d="M529.6,1463.4h-4.1v-29.3c0-0.8-0.3-1.2-1-1.2h-7.7v-4.1h8.9c2.7,0,4,1.4,4,4.2V1463.4z"/>
	<path class="st0" d="M558.3,1444.4c0,0.7-0.5,1.7-1.6,3l-7.1,8.8c-0.6,0.7-0.8,1.3-0.8,2c0,0.8,0.3,1.1,0.8,1.1h4.4v4.1h-7.7
		c-0.9,0-1.4-0.8-1.4-2.3v-4.4c0-1,0.7-2.2,2-3.8l7-8.3c0.4-0.5,0.6-0.9,0.6-1.1v-9.1c0-1-0.5-1.6-1.6-1.6h-18.5v-4.1h20.2
		c1.2,0,2.2,0.4,2.9,1.1c0.7,0.8,1.1,1.7,1.1,2.9V1444.4z M540,1471.1h-4.1v-32h4.1V1471.1z"/>
	<path class="st0" d="M576,1448.4h-4.3v-15.5h-8v-4.1h8.2c2.8,0,4.1,1.4,4.1,4.1V1448.4z"/>
	<path class="st0" d="M607.6,1459.3c0,2.7-1.3,4.1-4,4.1H596v-4.1h7.6v-22.1c0-3.4-1.6-5.2-4.7-5.2c-3.1,0-5.4,1.5-7,4.4
		c-1.3,2.4-2,5.2-2,8.6v18.2h-4.1v-30.6h-5.3v-4.1h5.4c2.1,0,3.3,0.6,3.8,1.9c0.2,0.5,0.2,2.1,0.2,4.7h0.3c2.3-4.8,5.4-7.1,9.2-7.1
		c2.6,0,4.6,0.7,6.1,2.1c1.5,1.4,2.2,3.3,2.2,5.9V1459.3z"/>
	<path class="st0" d="M638.6,1463.4h-4v-28.6c0-1.3-0.6-2-1.9-2h-19.3v-4.1h21.1c1.1,0,2.1,0.4,2.9,1.3c0.8,0.8,1.2,1.8,1.2,3
		V1463.4z M617.9,1463.4h-4v-22.6h4V1463.4z"/>
	<path class="st0" d="M695.7,1463.4h-4.2v-29.6c0-0.6-0.2-1-0.6-1h-15.1v26.6c0,2.6-1.4,3.9-4.1,3.9h-5.6v-4.1h5.6v-26.5h-5.1v-4.1
		h25c2.8,0,4.1,1.4,4.1,4.1V1463.4z"/>
	<path class="st0" d="M731.3,1463.4h-4.7l-14.6-20c-2.3,0.8-3.8,2-4.5,3.7c-0.6,1.2-0.8,3.1-0.8,5.9v6.4h6.3v4.1h-8.1
		c-1.5,0-2.3-1.3-2.3-3.9v-8.8c0-4.8,2.4-8.4,7.1-10.7l-8.5-10.8l0.1-0.5h4.9l12.4,16.9c2.1,0,3.8-0.6,5-1.7
		c1.2-1.2,1.8-2.8,1.8-4.9v-5.1c0-0.7-0.4-1-1.3-1h-4.4v-4.1h5.9c1.2,0,2.2,0.5,2.9,1.6c0.6,0.9,0.9,2,0.9,3.3v5.5
		c0,2.5-0.7,4.6-2.2,6.4s-3.4,3-5.9,3.6l9.8,13.7V1463.4z"/>
	<path class="st0" d="M789.5,1463.4h-4.7l-14.6-20c-2.3,0.8-3.8,2-4.5,3.7c-0.6,1.2-0.8,3.1-0.8,5.9v6.4h6.3v4.1h-8.1
		c-1.5,0-2.3-1.3-2.3-3.9v-8.8c0-4.8,2.4-8.4,7.1-10.7l-8.5-10.8l0.1-0.5h4.9l12.4,16.9c2.1,0,3.8-0.6,5-1.7
		c1.2-1.2,1.8-2.8,1.8-4.9v-5.1c0-0.7-0.4-1-1.3-1h-4.4v-4.1h5.9c1.2,0,2.2,0.5,2.9,1.6c0.6,0.9,0.9,2,0.9,3.3v5.5
		c0,2.5-0.7,4.6-2.2,6.4s-3.4,3-5.9,3.6l9.8,13.7V1463.4z"/>
	<path class="st0" d="M822.6,1433.7c0,4-1.7,7.5-5.1,10.3l-3.7,3.1c2.4,2,4.1,3.5,4.9,4.4c1.8,2,2.8,4,2.8,5.8c0,2.8-0.7,4.9-2,6.2
		h-23.5v-4.1h20.9c0.4-0.4,0.5-1,0.5-1.7c0-1.7-1.4-3.7-4.3-6.2l-8.9-7.5c-1.8-1.5-2.7-3.2-2.7-5.3v-3.9c0-1.3-0.3-1.9-0.8-1.9h-5.3
		v-4.1h6.2c2.6,0,4,1.6,4,4.9v3.3c0,2.2,0.7,3.9,2.1,5.1l3.3,2.8l4.3-3.7c0.9-0.8,1.7-1.8,2.4-3.1c0.7-1.3,1-2.4,1-3.6
		c0-1-0.6-1.6-1.7-1.6H813v-4.1h6.1C821.4,1428.8,822.6,1430.5,822.6,1433.7z"/>
	<path class="st0" d="M855.6,1459.3c0,2.7-1.3,4.1-4,4.1H844v-4.1h7.6v-22.1c0-3.4-1.6-5.2-4.7-5.2c-3.1,0-5.4,1.5-7,4.4
		c-1.3,2.4-2,5.2-2,8.6v18.2h-4.1v-30.6h-5.3v-4.1h5.4c2.1,0,3.3,0.6,3.8,1.9c0.2,0.5,0.2,2.1,0.2,4.7h0.3c2.3-4.8,5.4-7.1,9.2-7.1
		c2.6,0,4.6,0.7,6.1,2.1c1.5,1.4,2.2,3.3,2.2,5.9V1459.3z"/>
</g>
</svg>
