<?xml version="1.0" encoding="utf-8"?>
<!-- Generator: Adobe Illustrator 21.0.0, SVG Export Plug-In . SVG Version: 6.00 Build 0)  -->
<svg version="1.1" id="Layer_1" xmlns="http://www.w3.org/2000/svg" xmlns:xlink="http://www.w3.org/1999/xlink" x="0px" y="0px"
	 viewBox="0 0 1242 2208" style="enable-background:new 0 0 1242 2208;" xml:space="preserve">
<style type="text/css">
	.st0{fill:#BFC0BE;}
	.st1{fill:#FFFFFF;}
	.st2{fill:#F7941D;}
	.st3{fill:#C3C3C3;}
	.st4{font-family:'Microsoft-Yi-Baiti';}
	.st5{font-size:43px;}
</style>
<rect x="269.1" y="1333.8" class="st0" width="120.3" height="120.3"/>
<rect x="389.3" y="1333.8" class="st1" width="589.6" height="120.3"/>
<path class="st2" d="M352.7,1385.1v-4c0-13-10.5-23.5-23.5-23.5c-13,0-23.5,10.5-23.5,23.5v4h-4.9v45.1h56.9v-45.1H352.7z
	 M331.3,1405.6v12.6c0,1.2-0.9,2.1-2.1,2.1c-1.2,0-2.1-0.9-2.1-2.1v-12.6c-2-0.8-3.3-2.8-3.3-5c0-3,2.4-5.4,5.4-5.4
	c3,0,5.4,2.4,5.4,5.4C334.6,1402.8,333.3,1404.7,331.3,1405.6z M346.1,1385.1h-33.9v-4c0-9.3,7.6-16.9,16.9-16.9
	c9.3,0,16.9,7.6,16.9,16.9V1385.1z"/>
<text transform="matrix(1 0 0 1 442.1941 1405.8821)" class="st3 st4 st5">Password</text>
</svg>
