<?xml version="1.0" encoding="utf-8"?>
<!-- Generator: Adobe Illustrator 21.0.0, SVG Export Plug-In . SVG Version: 6.00 Build 0)  -->
<svg version="1.1" id="Layer_1" xmlns="http://www.w3.org/2000/svg" xmlns:xlink="http://www.w3.org/1999/xlink" x="0px" y="0px"
	 viewBox="0 0 1242 2208" style="enable-background:new 0 0 1242 2208;" xml:space="preserve">
<style type="text/css">
	.st0{fill:#FFFFFF;}
	.st1{fill:#F7941D;}
</style>
<g>
	<rect x="785" y="688" class="st0" width="279" height="279"/>
	<g>
		<path class="st1" d="M991.5,772.2c-4.4-1-8.9,1.7-9.9,6.2l-9.5,41.4l-71.8-0.7l-17.3-69.1c-0.6-2.2-2-4.1-4-5.2l-15.7-8.6
			c-4-2.2-9-0.7-11.2,3.3c-2.2,4-0.7,9,3.3,11.2l12.5,6.9l17.6,70.4l-9.5,7.5c-1.1,0.9-1.8,2.3-1.8,3.7v11.8c0,2.6,2.1,4.7,4.6,4.7
			l13.3,0.2c-1.8,1.7-3,4.2-3,6.9c0,5.2,4.2,9.4,9.4,9.4c5.2,0,9.4-4.2,9.4-9.4c0-2.6-1.1-5-2.8-6.7l62.2,0.9
			c-1.3,1.6-2.1,3.6-2.1,5.8c0,5.2,4.2,9.4,9.4,9.4s9.4-4.2,9.4-9.4c0-2.1-0.7-4-1.9-5.6l8.1,0.1c0,0,0,0,0.1,0
			c2.6,0,4.7-2.1,4.7-4.6c0-2.6-2-4.7-4.6-4.8l-106.8-1.5v-4.8l7.8-6.2c0.7,0.2,1.5,0.4,2.3,0.4l84.7,0.8c0,0,0.1,0,0.1,0
			c3.8,0,7.2-2.7,8-6.4l11-47.9C998.7,777.6,995.9,773.2,991.5,772.2z"/>
		<path class="st1" d="M955.8,775.5h-7.7v-22.2c0-2.7-2.2-4.9-4.9-4.9h-14.8c-2.7,0-4.9,2.2-4.9,4.9v22.2h-7.7
			c-3.4,0-4.5,2.2-2.5,4.9l5.7,7.6c2,2.7,5.3,7.2,7.4,9.9l5.7,7.6c2,2.7,5.3,2.7,7.4,0l5.7-7.6c2-2.7,5.3-7.2,7.4-9.9l5.7-7.6
			C960.3,777.7,959.2,775.5,955.8,775.5z"/>
	</g>
</g>
</svg>
