<?xml version="1.0" encoding="utf-8"?>
<!-- Generator: Adobe Illustrator 21.0.0, SVG Export Plug-In . SVG Version: 6.00 Build 0)  -->
<svg version="1.1" id="Layer_1" xmlns="http://www.w3.org/2000/svg" xmlns:xlink="http://www.w3.org/1999/xlink" x="0px" y="0px"
	 viewBox="0 0 1242 2208" style="enable-background:new 0 0 1242 2208;" xml:space="preserve">
<style type="text/css">
	.st0{fill:#F7941D;}
	.st1{fill:#BFC0BE;}
</style>
<path class="st0" d="M749.6,960.2c0,30-10.5,57.6-28.2,79.2c-23,28.3-58.1,46.4-97.5,46.4c-39.3,0-74.5-18.1-97.5-46.4
	c-17.6-21.6-28.1-49.2-28.1-79.2c0-69.4,56.3-125.6,125.6-125.6S749.6,890.8,749.6,960.2z"/>
<path class="st1" d="M721.5,1039.5c-23,28.3-58.1,46.4-97.5,46.4c-39.3,0-74.5-18.1-97.5-46.4c2.4-3.4,5.8-6.2,9.8-7.9l49-20.8
	c5.8-2.5,9.5-8.1,9.5-14.4v-9.6c-7-7.7-12.6-18.7-16.5-32.5c-1.9-0.2-3.6-1.5-4.3-3.4l-6.3-17.5c-1-2.8,0.5-6,3.4-6.9l2.3-0.7
	c-2.5-36.2,13.5-53.6,50.2-53.7c36.7,0.1,52.7,17.6,50.2,53.7l0.1-0.2l2.9,0.9c2.9,0.9,4.4,4,3.4,6.9l-6.3,17.5
	c-0.8,2.2-2.8,3.5-5,3.5c-3.8,13.4-9.1,24.1-15.8,31.7v10.3c0,6.3,3.8,11.9,9.5,14.4l49.1,20.8
	C715.7,1033.2,719.1,1036,721.5,1039.5z"/>
</svg>
