<?xml version="1.0" encoding="utf-8"?>
<!-- Generator: Adobe Illustrator 21.0.0, SVG Export Plug-In . SVG Version: 6.00 Build 0)  -->
<svg version="1.1" id="Layer_1" xmlns="http://www.w3.org/2000/svg" xmlns:xlink="http://www.w3.org/1999/xlink" x="0px" y="0px"
	 viewBox="0 0 1242 2208" style="enable-background:new 0 0 1242 2208;" xml:space="preserve">
<style type="text/css">
	.st0{fill:#FFFFFF;}
</style>
<g>
	<rect x="248" y="1618.5" class="st0" width="745.9" height="120.3"/>
</g>
<g>
	<path d="M358.9,1685.6h-36v-5.5h36V1685.6z"/>
	<path d="M431.1,1711.1h-10.3c-1.8,0-2.7-0.9-2.7-2.8v-48.8h-21.3v-5.5h33.9v5.5h-6.7v45.9h7V1711.1z"/>
	<path d="M468,1674c0,1.3-0.4,2.3-1.3,3.2l-15.6,14.5c-0.4,0.3-0.6,0.9-0.6,1.6c0,1.3,0.6,1.9,1.8,1.9h6v5.5H448
		c-1.9,0-2.8-1-2.8-3.1v-6.4c0-1.3,1-2.9,3-4.7l12.7-11.5c0.6-0.6,1-1.3,1-2.2v-11.6c0-1.2-0.5-1.8-1.6-1.8h-17.6
		c-2.8,0-4.2-1.8-4.2-5.5v-8.8h6.3v8.8h17.7c1.6,0,3,0.5,3.9,1.6c1,1.1,1.5,2.4,1.5,4L468,1674z"/>
	<path d="M515.4,1691.7c0,2.9-0.9,5.1-2.8,6.7c-1.9,1.5-4.3,2.3-7.3,2.3h-20.8c-2.6,0-4.9-0.9-6.8-2.6s-3-3.8-3-6.4v-32.2
		c0-2.2,0.4-3.6,1.2-4.4c0.8-0.8,2.3-1.1,4.5-1.1h5.6v5.5h-5.9v30.7c0,1.6,0.5,2.8,1.5,3.7c1,0.9,2.3,1.3,3.9,1.3h6.6V1654h5.5v41.2
		h7.3c3.3,0,4.9-1.7,4.9-5v-30.7h-5.5v-5.5h5.3c2.3,0,3.8,0.3,4.4,0.8c0.8,0.7,1.2,2.3,1.2,4.7V1691.7z"/>
	<path d="M587.2,1700.7h-5.4v-38.6c0-1.8-0.8-2.7-2.5-2.7h-26v-5.5h28.5c1.5,0,2.8,0.6,3.9,1.7c1,1.1,1.6,2.5,1.6,4.1V1700.7z
		 M559.2,1700.7h-5.4v-30.5h5.4V1700.7z"/>
	<path d="M631.1,1685.1c0,4.3-1.5,7.9-4.6,11c-3.1,3.1-6.8,4.6-11.1,4.6h-21.2v-5.5h9v-34.7c0-0.7-0.3-1.1-1-1.1h-8v-5.5h9
		c2,0,3.4,0.4,4.2,1.3c0.9,0.8,1.3,2.3,1.3,4.3v35.7h5.5c7.5,0,11.3-3.7,11.3-11v-23.3c0-0.9-0.4-1.4-1.1-1.4h-6.6v-5.5h7.6
		c2.2,0,3.6,0.4,4.4,1.2c0.8,0.8,1.2,2.3,1.2,4.4V1685.1z"/>
	<path d="M662.1,1700.7h-5.8v-12.5c-4.2,7.7-10,12.1-17.4,13.1v-5.8c7.8-2,13.2-6.5,16-13.5c0.9-2.2,1.4-4.1,1.4-5.6v-14.5
		c0-1.6-0.9-2.4-2.6-2.4h-9.2v-5.5H656c4,0,6.1,1.9,6.1,5.8V1700.7z"/>
	<path d="M702.2,1700.7h-5.4v-38.6c0-1.8-0.8-2.7-2.5-2.7h-26v-5.5h28.5c1.5,0,2.8,0.6,3.9,1.7c1,1.1,1.6,2.5,1.6,4.1V1700.7z
		 M674.3,1700.7h-5.4v-30.5h5.4V1700.7z"/>
	<path d="M743.1,1700.7h-5.4v-38.6c0-1.8-0.8-2.7-2.5-2.7h-26v-5.5h28.5c1.5,0,2.8,0.6,3.9,1.7c1,1.1,1.6,2.5,1.6,4.1V1700.7z
		 M715.2,1700.7h-5.4v-30.5h5.4V1700.7z"/>
	<path d="M820.2,1700.7h-5.7v-39.9c0-0.9-0.3-1.3-0.8-1.3h-20.4v36c0,3.5-1.8,5.3-5.5,5.3h-7.5v-5.5h7.5v-35.7h-6.9v-5.5h33.7
		c3.7,0,5.6,1.8,5.6,5.5V1700.7z"/>
	<path d="M864.7,1685.1c0,4.3-1.5,7.9-4.6,11c-3.1,3.1-6.8,4.6-11.1,4.6h-21.2v-5.5h9v-34.7c0-0.7-0.3-1.1-1-1.1h-8v-5.5h9
		c2,0,3.4,0.4,4.2,1.3c0.8,0.8,1.3,2.3,1.3,4.3v35.7h5.5c7.5,0,11.3-3.7,11.3-11v-23.3c0-0.9-0.4-1.4-1.1-1.4h-6.6v-5.5h7.6
		c2.2,0,3.6,0.4,4.4,1.2c0.8,0.8,1.2,2.3,1.2,4.4V1685.1z"/>
	<path d="M913.1,1691.7c0,2.9-0.9,5.1-2.8,6.7c-1.9,1.5-4.3,2.3-7.3,2.3h-20.8c-2.6,0-4.9-0.9-6.8-2.6s-3-3.8-3-6.4v-32.2
		c0-2.2,0.4-3.6,1.2-4.4c0.8-0.8,2.3-1.1,4.5-1.1h5.6v5.5H878v30.7c0,1.6,0.5,2.8,1.5,3.7c1,0.9,2.3,1.3,3.9,1.3h6.6V1654h5.5v41.2
		h7.3c3.3,0,4.9-1.7,4.9-5v-30.7h-5.5v-5.5h5.3c2.3,0,3.8,0.3,4.4,0.8c0.8,0.7,1.2,2.3,1.2,4.7V1691.7z"/>
</g>
</svg>
